<svg width="216" height="38" viewBox="0 0 216 38" fill="none" xmlns="http://www.w3.org/2000/svg">
<path d="M34.0366 28.88V14.2333H31.7275V10.7221L34.0366 10.2539V8.34784C34.0366 7.01024 34.2485 5.89558 34.6724 5.00384C35.0964 4.10096 35.6597 3.38758 36.3624 2.86368C37.0763 2.33978 37.8572 1.96638 38.7049 1.74344C39.5639 1.50936 40.4173 1.39232 41.265 1.39232C42.2244 1.39232 43.0108 1.44248 43.6243 1.5428C44.249 1.63198 44.6673 1.70442 44.8792 1.76016V5.90672C44.6673 5.8064 44.3605 5.71722 43.9589 5.6392C43.5573 5.55002 43.061 5.50544 42.4697 5.50544C41.767 5.50544 41.1981 5.7451 40.763 6.2244C40.3391 6.7037 40.1272 7.48954 40.1272 8.58192V10.2539H44.1764V14.2333H40.1272V28.88H34.0366ZM53.4357 17.9117L53.2014 13.531C53.4246 12.8511 53.7983 12.2436 54.3225 11.7086C54.8579 11.1735 55.4938 10.7555 56.23 10.4546C56.9775 10.1425 57.7861 9.9864 58.6562 9.9864C58.9239 9.9864 59.1916 10.0031 59.4594 10.0366C59.7271 10.07 59.9168 10.1202 60.0283 10.187V16.1728C59.8833 16.0725 59.6547 15.9722 59.3422 15.8718C59.0299 15.7604 58.5893 15.7046 58.0204 15.7046C57.1281 15.7046 56.3751 15.8384 55.7615 16.1059C55.1591 16.3623 54.6684 16.6633 54.289 17.0088C53.9209 17.3543 53.6365 17.6553 53.4357 17.9117ZM47.7467 28.88V10.2539H53.0341L53.3353 13.5645L53.8038 14.0661V28.88H47.7467ZM71.6766 29.1475C69.9588 29.1475 68.4974 28.8856 67.2927 28.3617C66.0992 27.8266 65.1399 27.0966 64.4147 26.1714C63.6898 25.2461 63.1654 24.1873 62.8419 22.9946C62.5185 21.7907 62.3623 20.52 62.3734 19.1824C62.4068 17.1983 62.8364 15.5263 63.6618 14.1664C64.4873 12.8065 65.6195 11.7754 67.0584 11.0732C68.4974 10.371 70.1485 10.0198 72.0112 10.0198C74.3092 10.0198 76.1387 10.4769 77.4995 11.3909C78.8715 12.3049 79.8533 13.5143 80.4444 15.0191C81.0356 16.5239 81.3144 18.1681 81.281 19.9515C81.2588 21.9468 80.8348 23.6299 80.0093 25.001C79.1951 26.3609 78.0684 27.3919 76.6294 28.0942C75.1904 28.7964 73.5395 29.1475 71.6766 29.1475ZM71.8104 24.9675C73.0041 24.9675 73.8296 24.5328 74.2868 23.6634C74.7553 22.7828 74.9896 21.4563 74.9896 19.684C74.9896 18.6808 74.8948 17.7668 74.7052 16.9419C74.5156 16.1059 74.1977 15.4427 73.7514 14.9522C73.3053 14.4506 72.6918 14.1998 71.9108 14.1998C70.695 14.1998 69.8473 14.6401 69.3675 15.5207C68.899 16.4013 68.6648 17.6887 68.6648 19.383C68.6648 20.4086 68.7597 21.3449 68.9492 22.192C69.15 23.0391 69.4792 23.7135 69.9364 24.2151C70.3938 24.7167 71.0186 24.9675 71.8104 24.9675ZM95.7959 28.88H89.2702L97.9376 3.86688H104.999L113.733 28.88H107.14L102.154 12.1266L101.351 8.88288L100.514 12.1266L95.7959 28.88ZM94.6915 24.2318L95.3943 19.8846H106.806L107.475 24.2318H94.6915ZM115.536 27.6427L116.139 23.4627C116.317 23.6188 116.685 23.8306 117.243 24.0981C117.812 24.3545 118.481 24.5886 119.251 24.8003C120.021 25.001 120.813 25.1013 121.627 25.1013C122.598 25.1124 123.289 25.0121 123.702 24.8003C124.126 24.5773 124.338 24.2318 124.338 23.7637C124.338 23.4404 124.187 23.1618 123.886 22.9277C123.585 22.6825 123.178 22.4539 122.664 22.2422C122.151 22.0304 121.582 21.8131 120.958 21.5901C119.597 21.0996 118.515 20.5591 117.712 19.9682C116.92 19.3774 116.351 18.7142 116.005 17.9786C115.659 17.2318 115.492 16.3845 115.503 15.4371C115.503 14.2333 115.849 13.2301 116.54 12.4275C117.243 11.625 118.18 11.023 119.351 10.6218C120.523 10.2205 121.817 10.0198 123.233 10.0198C124.762 10.0198 126.039 10.1536 127.065 10.4211C128.091 10.6775 128.811 10.9227 129.224 11.1568L128.688 15.4037C128.465 15.203 128.114 14.9913 127.634 14.7683C127.154 14.5454 126.613 14.3559 126.011 14.1998C125.409 14.0438 124.806 13.9658 124.204 13.9658C123.166 13.9658 122.43 14.0717 121.995 14.2834C121.571 14.4952 121.359 14.8129 121.359 15.2365C121.359 15.7381 121.588 16.1059 122.045 16.34C122.503 16.5741 123.222 16.875 124.204 17.2429C125.676 17.7779 126.859 18.3186 127.751 18.8647C128.655 19.4109 129.307 20.0295 129.709 20.7206C130.121 21.4118 130.328 22.2478 130.328 23.2286C130.328 25.1682 129.608 26.6395 128.169 27.6427C126.742 28.6459 124.84 29.1475 122.464 29.1475C121.437 29.1475 120.461 29.0639 119.535 28.8967C118.61 28.7406 117.795 28.5456 117.093 28.3115C116.401 28.0774 115.882 27.8545 115.536 27.6427ZM133.127 19.7509C133.127 17.934 133.462 16.2898 134.131 14.8185C134.8 13.3471 135.827 12.1823 137.21 11.324C138.604 10.4546 140.389 10.0198 142.564 10.0198C143.825 10.0198 144.924 10.1146 145.861 10.3041C146.798 10.4936 147.417 10.6998 147.718 10.9227L147.049 15.4706C146.68 15.2699 146.201 15.0916 145.61 14.9355C145.029 14.7795 144.293 14.7014 143.401 14.7014C142.754 14.7014 142.113 14.8408 141.477 15.1194C140.852 15.3981 140.328 15.8775 139.904 16.5574C139.491 17.2262 139.273 18.1458 139.251 19.3162C139.229 20.598 139.402 21.6179 139.77 22.3759C140.149 23.1339 140.657 23.6801 141.293 24.0145C141.94 24.3378 142.653 24.4994 143.434 24.4994C144.226 24.4994 144.957 24.4325 145.626 24.2987C146.307 24.165 146.848 24.0089 147.249 23.8306L148.019 27.6427C147.506 28.1778 146.697 28.5623 145.593 28.7964C144.489 29.0305 143.334 29.1475 142.129 29.1475C140.077 29.1475 138.387 28.7406 137.059 27.927C135.732 27.1021 134.745 25.9818 134.098 24.5662C133.451 23.1507 133.127 21.5455 133.127 19.7509ZM160.197 29.1475C157.186 29.1475 154.887 28.2948 153.304 26.5894C151.719 24.8728 150.927 22.5041 150.927 19.4834C150.927 17.6776 151.295 16.0614 152.032 14.6346C152.768 13.2078 153.827 12.082 155.211 11.2571C156.604 10.4323 158.29 10.0198 160.264 10.0198C161.256 10.0198 162.216 10.1369 163.142 10.371C164.067 10.5939 164.899 10.9896 165.635 11.5581C166.372 12.1154 166.962 12.8845 167.409 13.8654C167.855 14.8463 168.083 16.0836 168.095 17.5773C168.095 18.2461 168.072 18.8814 168.028 19.4834C167.995 20.0853 167.949 20.5869 167.894 20.9882H154.04L154.374 17.9786H162.473C162.528 17.0757 162.484 16.3233 162.339 15.7214C162.205 15.1083 161.954 14.6513 161.586 14.3503C161.229 14.0494 160.743 13.8989 160.13 13.8989C159.428 13.8989 158.83 14.0939 158.34 14.4841C157.859 14.8631 157.497 15.5207 157.252 16.457C157.006 17.3934 156.895 18.6919 156.918 20.3528C156.939 21.434 157.135 22.309 157.503 22.9778C157.882 23.6355 158.418 24.1148 159.11 24.4158C159.8 24.7167 160.632 24.8672 161.603 24.8672C162.205 24.8672 162.835 24.8227 163.494 24.7334C164.151 24.6442 164.759 24.5272 165.317 24.3823C165.886 24.2375 166.321 24.087 166.623 23.9309L167.56 27.1411C167.146 27.4755 166.572 27.7988 165.836 28.1109C165.111 28.4118 164.263 28.6626 163.293 28.8633C162.333 29.0528 161.302 29.1475 160.197 29.1475ZM172.535 28.88V10.2539H178.057L178.191 12.4275C178.582 12.0374 179.094 11.6584 179.73 11.2906C180.366 10.9227 181.075 10.6162 181.855 10.371C182.637 10.1257 183.445 9.99754 184.281 9.9864C186.178 9.95296 187.6 10.4713 188.548 11.5414C189.497 12.6003 189.97 14.4674 189.97 17.1426V28.88H183.913V18.2461C183.913 16.8861 183.741 15.9554 183.395 15.4538C183.049 14.9411 182.43 14.7014 181.537 14.7349C181.248 14.7349 180.924 14.7795 180.567 14.8686C180.211 14.9578 179.853 15.0916 179.496 15.2699C179.151 15.4482 178.839 15.6712 178.559 15.9387V28.88H172.535ZM207.212 28.88V26.673L206.71 26.3051V14.0995L206.844 13.9658L206.71 8.4816V1.72672H212.667V28.88H207.212ZM201.49 29.1475C200.174 29.1475 198.963 28.8242 197.859 28.1778C196.755 27.5201 195.868 26.5336 195.198 25.2183C194.529 23.8918 194.195 22.2254 194.195 20.219C194.195 18.1123 194.579 16.2955 195.349 14.7683C196.131 13.2412 197.223 12.0708 198.629 11.2571C200.046 10.4323 201.703 10.0198 203.598 10.0198C204.759 10.0198 205.696 10.1313 206.409 10.3542C207.124 10.5772 207.58 10.7667 207.781 10.9227L206.744 14.7349C206.499 14.5342 206.131 14.3949 205.639 14.3169C205.16 14.2389 204.636 14.1998 204.067 14.1998C203.364 14.1998 202.74 14.4116 202.193 14.8352C201.657 15.2476 201.234 15.8775 200.921 16.7246C200.609 17.5717 200.452 18.6363 200.452 19.9181C200.442 21.657 200.72 22.8775 201.289 23.5798C201.858 24.282 202.617 24.6331 203.565 24.6331C204.156 24.6331 204.748 24.5439 205.338 24.3656C205.941 24.1761 206.409 23.9643 206.744 23.7302L207.346 26.7733C207.091 27.0519 206.71 27.3808 206.208 27.7598C205.719 28.1276 205.083 28.4509 204.301 28.7295C203.531 29.0081 202.594 29.1475 201.49 29.1475Z" fill="#FE7A04"/>
<path d="M17.4931 1.52L32.6424 28.88H2.34375L17.4931 1.52Z" fill="#FE7A04"/>
<path d="M17.4928 10.64L28.0314 28.88H6.9541L17.4928 10.64Z" fill="white"/>
<path d="M17.4929 15.2L25.3969 28.88H9.58887L17.4929 15.2Z" fill="#2A1552"/>
<path d="M71.7977 28.88C76.8382 28.88 80.9244 24.7968 80.9244 19.76C80.9244 14.7232 76.8382 10.64 71.7977 10.64C66.7571 10.64 62.6709 14.7232 62.6709 19.76C62.6709 24.7968 66.7571 28.88 71.7977 28.88Z" fill="#FE7A04"/>
<path d="M71.7976 24.32C74.7379 24.32 77.1215 21.9382 77.1215 19C77.1215 16.0618 74.7379 13.68 71.7976 13.68C68.8572 13.68 66.4736 16.0618 66.4736 19C66.4736 21.9382 68.8572 24.32 71.7976 24.32Z" fill="#FFDF00"/>
</svg>
