<svg width="97" height="96" viewBox="0 0 97 96" fill="none" xmlns="http://www.w3.org/2000/svg">
<rect x="0.5" width="96" height="96" rx="48" fill="#FFF3EA"/>
<g clip-path="url(#clip0_90_2074)">
<path d="M56.2336 23.045C55.2915 22.0809 54.1662 21.3148 52.9239 20.7918C51.6815 20.2687 50.3471 19.9993 48.9991 19.9993C47.6512 19.9993 46.3168 20.2687 45.0744 20.7918C43.832 21.3148 42.7067 22.0809 41.7646 23.045L39.5876 25.278L36.4726 25.2395C35.1243 25.2235 33.7863 25.4773 32.5375 25.986C31.2886 26.4947 30.1541 27.2479 29.2005 28.2014C28.247 29.1549 27.4938 30.2895 26.9851 31.5383C26.4765 32.7872 26.2227 34.1251 26.2386 35.4735L26.2736 38.5885L24.0476 40.7655C23.0835 41.7076 22.3174 42.8329 21.7944 44.0753C21.2714 45.3176 21.002 46.652 21.002 48C21.002 49.348 21.2714 50.6824 21.7944 51.9247C22.3174 53.1671 23.0835 54.2924 24.0476 55.2345L26.2771 57.4115L26.2386 60.5265C26.2227 61.8749 26.4765 63.2128 26.9851 64.4617C27.4938 65.7105 28.247 66.8451 29.2005 67.7986C30.1541 68.7521 31.2886 69.5053 32.5375 70.014C33.7863 70.5226 35.1243 70.7765 36.4726 70.7605L39.5876 70.7255L41.7646 72.9515C42.7067 73.9156 43.832 74.6817 45.0744 75.2047C46.3168 75.7278 47.6512 75.9972 48.9991 75.9972C50.3471 75.9972 51.6815 75.7278 52.9239 75.2047C54.1662 74.6817 55.2915 73.9156 56.2336 72.9515L58.4106 70.722L61.5256 70.7605C62.874 70.7765 64.212 70.5226 65.4608 70.014C66.7097 69.5053 67.8442 68.7521 68.7977 67.7986C69.7512 66.8451 70.5045 65.7105 71.0131 64.4617C71.5218 63.2128 71.7756 61.8749 71.7596 60.5265L71.7246 57.4115L73.9506 55.2345C74.9147 54.2924 75.6808 53.1671 76.2038 51.9247C76.7269 50.6824 76.9963 49.348 76.9963 48C76.9963 46.652 76.7269 45.3176 76.2038 44.0753C75.6808 42.8329 74.9147 41.7076 73.9506 40.7655L71.7211 38.5885L71.7596 35.4735C71.7756 34.1251 71.5218 32.7872 71.0131 31.5383C70.5045 30.2895 69.7512 29.1549 68.7977 28.2014C67.8442 27.2479 66.7097 26.4947 65.4608 25.986C64.212 25.4773 62.874 25.2235 61.5256 25.2395L58.4106 25.2745L56.2336 23.045ZM57.2381 43.989L46.7381 54.489C46.5756 54.652 46.3825 54.7813 46.1699 54.8695C45.9572 54.9577 45.7293 55.0031 45.4991 55.0031C45.2689 55.0031 45.041 54.9577 44.8284 54.8695C44.6158 54.7813 44.4227 54.652 44.2601 54.489L39.0101 49.239C38.8474 49.0763 38.7184 48.8831 38.6303 48.6705C38.5422 48.458 38.4969 48.2301 38.4969 48C38.4969 47.7699 38.5422 47.542 38.6303 47.3295C38.7184 47.1169 38.8474 46.9237 39.0101 46.761C39.1728 46.5983 39.366 46.4692 39.5786 46.3812C39.7912 46.2931 40.019 46.2478 40.2491 46.2478C40.4792 46.2478 40.7071 46.2931 40.9197 46.3812C41.1323 46.4692 41.3254 46.5983 41.4881 46.761L45.4991 50.7755L54.7601 41.511C55.0887 41.1824 55.5344 40.9978 55.9991 40.9978C56.4638 40.9978 56.9095 41.1824 57.2381 41.511C57.5667 41.8396 57.7513 42.2853 57.7513 42.75C57.7513 43.2147 57.5667 43.6604 57.2381 43.989Z" fill="#FE7A04"/>
</g>
<defs>
<clipPath id="clip0_90_2074">
<rect width="56" height="56" fill="white" transform="translate(21 20)"/>
</clipPath>
</defs>
</svg>
