<svg width="1440" height="149" viewBox="0 0 1440 149" fill="none" xmlns="http://www.w3.org/2000/svg">
<path fill-rule="evenodd" clip-rule="evenodd" d="M177.185 20.094C202.029 33.8047 218.285 64.1348 211.171 92.3159C207.367 106.256 198.438 117.946 188.007 127.646C175.365 140.234 150.14 147.167 130.026 149.177H113.632C112.11 148.749 111.003 147.905 111.244 146.15C110.684 145.817 110.275 145.217 110.257 144.357C110.072 110.668 101.709 115.915 126.204 114.772C149.219 114.439 172.901 93.7229 168.017 69.4865C163.387 53.3466 144.773 45.9959 129.509 44.4271C123.897 44.1805 118.8 44.5238 113.425 45.1059C111.246 45.0783 107.53 46.657 106.849 43.5983C106.832 42.8129 107.047 42.2486 107.426 41.8441C107.424 41.8302 107.424 41.8204 107.42 41.8085C106.802 33.2522 106.433 24.678 105.786 16.1197C105.813 14.7522 105.235 13.0887 106.277 11.9718C106.905 11.3739 107.783 11.1568 108.556 11.4193C108.886 10.9831 109.393 10.6556 110.101 10.5668C111.309 10.1504 112.533 9.79515 113.762 9.48928C119.206 8.14347 124.852 7.812 130.476 7.95605C132.465 8.00736 134.448 8.11589 136.422 8.26191C141.517 8.50661 146.594 9.14004 151.577 10.1918C152.986 10.4878 154.383 10.8194 155.772 11.1805C163.269 13.14 170.495 16.0842 177.185 20.094Z" fill="#261447"/>
<path fill-rule="evenodd" clip-rule="evenodd" d="M357.855 126.498C357.369 131.311 359.163 144.939 354.962 147.244C352.846 148.191 350.618 148.793 348.335 149.177H348.333H269.106H269.104C261.763 148.708 254.421 148.313 247.068 148.55C245.002 148.224 240.439 149.402 237.527 148.933C237.418 149.023 237.304 149.104 237.183 149.177H234.733C234.293 148.879 233.949 148.378 233.813 147.644C233.296 125.115 231.773 102.621 231.064 80.0931C229.943 59.7204 230.227 39.3004 228.742 18.9376C228.341 16.7374 228.56 15.2278 229.063 14.2766C228.7 12.9012 229.959 11.3146 231.465 11.6047C236.629 11.9856 241.785 12.619 246.961 12.9288C251.2 13.1577 255.441 12.9702 259.685 12.9446C262.509 12.6269 265.343 13.8523 265.968 16.8419C268.394 30.1185 267.204 43.8331 267.61 57.2774C267.456 58.195 267.585 59.4106 267.667 60.638C268.433 60.6814 269.209 60.7999 269.842 60.8354C274.272 61.0505 278.696 61.0801 283.127 61.0228C289.047 61.7175 299.56 58.2523 301.425 66.1318C303.791 76.4562 303.083 87.2267 302.943 97.7446C302.943 97.7959 302.943 97.8471 302.941 97.8984C319.422 99.5975 336.174 97.5176 352.59 100.154C359.36 102.09 357.132 120.469 357.855 126.498Z" fill="#FE7A04"/>
<path fill-rule="evenodd" clip-rule="evenodd" d="M238.698 149.178C238.51 148.601 238.629 147.928 239.231 147.198C240.225 146.095 241.67 146.772 242.923 146.784C247.503 147.005 252.095 146.928 256.677 147.058C261.221 147.188 265.786 147.331 270.319 147.711C271.246 147.694 272.039 148.341 272.319 149.176H238.698V149.178Z" fill="#FE7A04"/>
<path fill-rule="evenodd" clip-rule="evenodd" d="M236.941 149.177C236.521 148.469 236.469 147.567 237.045 146.823C238.326 145.27 240.621 146.016 242.381 145.805C243.532 145.787 244.509 146.742 244.524 147.895C244.53 148.441 244.378 148.86 244.122 149.177H236.941Z" fill="#FE7A04"/>
<path fill-rule="evenodd" clip-rule="evenodd" d="M249.476 149.178C248.959 147.873 249.822 146.062 251.536 146.19C256.247 147.058 261.064 147.362 265.843 147.638C272.183 147.98 278.218 148.301 284.507 148.528C285.19 148.518 285.707 148.781 286.052 149.178H249.476Z" fill="#FE7A04"/>
<path fill-rule="evenodd" clip-rule="evenodd" d="M589.317 92.0554C589.343 96.4244 589.325 100.785 589.129 105.146C589.4 107.645 588.32 111.153 585.151 109.993C580.918 108.022 578.083 103.909 574.58 100.924C571.249 97.7485 567.817 94.6701 564.321 91.6805C561.453 88.7402 553.051 85.6579 559.206 81.36C564.998 77.3285 570.624 73.5338 576.202 69.301C579.389 67.7184 584.212 59.2054 587.517 63.9079C590.568 72.8332 589.112 82.7512 589.317 92.0554Z" fill="#FE7A04"/>
<path fill-rule="evenodd" clip-rule="evenodd" d="M517.04 85.4941C518.996 90.8557 506.142 99.0509 502.623 102.707C500.534 104.57 498.836 106.163 497.009 108.183C495.525 109.567 493.447 112.88 491.29 112.292H491.288C490.122 112.507 488.778 111.917 488.624 110.486C488.784 95.193 489.416 79.8228 488.202 64.5314C488.208 64.5373 488.212 64.5413 488.212 64.5413C488.177 62.7041 490.008 62.0411 491.31 62.6015C492.518 62.4318 493.43 63.4067 494.27 64.1348C497.97 67.0593 501.68 69.9798 504.985 73.3582C508.731 77.6403 513.656 80.991 517.04 85.4941Z" fill="#FE7A04"/>
<path fill-rule="evenodd" clip-rule="evenodd" d="M1086.78 10.4365C1087.32 21.5345 1088.73 32.6779 1087.67 43.7819C1087.38 47.7897 1086.53 51.4936 1086.31 55.239C1086.51 57.5952 1083.5 59.7816 1081.67 57.8102C1081.59 57.7234 1081.52 57.6307 1081.45 57.532C1077.97 58.2878 1072.54 57.8438 1070.73 58.2661C1061.53 58.7318 1052.32 58.9745 1043.12 59.1659C1017.07 59.3514 990.948 60.4604 965.002 60.3381C964.594 60.3361 964.221 60.3065 963.81 60.1328C963.816 60.1269 963.818 60.123 963.824 60.119C963.299 59.8961 962.95 59.5132 962.763 59.0653C962.757 59.0633 962.755 59.0594 962.751 59.0574C961.068 57.0387 961.977 53.8774 961.636 51.4127C961.551 44.6817 961.235 37.9586 960.85 31.2354C961.137 28.3524 959.288 13.6629 961.235 8.60921C960.817 7.70937 960.951 6.5392 961.879 5.98272C969.916 4.20672 978.624 6.44249 986.885 5.90377C1018.71 4.63097 1050.59 3.16282 1082.41 5.4282C1085.65 2.46228 1087.13 7.74685 1086.78 10.4365Z" fill="#FE7A04"/>
<path fill-rule="evenodd" clip-rule="evenodd" d="M1295.8 103.694C1296.28 117.138 1296.52 130.601 1296.06 144.051C1295.88 145.564 1296.34 147.81 1295.63 149.179H1291.76H1291.74H1291.69H1291.62H1291.51H1291.38H1291.22H1291.03H1290.82H1290.58H1290.32H1290.04H1289.73H1289.41H1289.07H1288.71H1288.33H1287.94H1287.53H1287.1H1286.67H1286.22H1285.76H1285.29H1284.82H1284.33H1283.84H1283.34H1282.83H1282.32H1281.81H1281.3H1280.79H1280.27H1279.76H1279.25H1278.74H1278.24H1277.74H1277.25H1276.76H1276.28H1275.81H1275.36H1274.91H1274.47H1274.05H1273.64H1273.25H1272.87H1272.51H1272.17H1271.84H1271.54H1271.26H1271H1270.76H1270.55H1270.36H1270.2H1270.06H1269.96H1269.88H1269.83H1269.82H1265.59C1265.44 148.706 1265.44 148.183 1265.6 147.694C1265.46 147.429 1265.38 147.133 1265.36 146.823C1264.77 128.428 1265.09 109.636 1265.47 91.3056C1264.9 63.0416 1264.92 34.6749 1261.84 6.5471C1261.81 6.32016 1261.77 6.07947 1261.74 5.83083C1261.48 5.82491 1261.23 5.7696 1260.99 5.67094C1261.01 5.11643 1261.03 4.56194 1261.05 4.00546C1261.08 3.40359 1261.07 2.79777 1261.08 2.19196C1268.62 2.19393 1276.17 2.26698 1283.7 2.34197C1286.5 2.38341 1289.31 2.37548 1292.12 2.32812C1292.55 3.30491 1292.8 4.55407 1292.82 6.14458C1295.12 38.5999 1293.64 71.2171 1295.8 103.694Z" fill="#FE7A04"/>
<path fill-rule="evenodd" clip-rule="evenodd" d="M1338.39 69.9325C1344.14 75.2092 1334.34 78.2916 1331.1 81.293C1326.28 84.1524 1309.03 100.296 1304.52 96.7106C1303.5 95.8108 1303.57 94.4906 1303.59 93.5454C1303.64 89.2593 1303.49 84.9772 1303.29 80.6951C1303.06 70.8679 1302.06 60.9341 1302.38 51.1464C1301.57 48.0444 1304.75 47.6063 1306.79 49.1593C1311.18 51.4977 1315.35 54.2623 1319.6 56.8454C1325.59 61.6031 1332.63 64.9163 1338.39 69.9325Z" fill="#FE7A04"/>
<path fill-rule="evenodd" clip-rule="evenodd" d="M1256.36 94.1354C1256.39 94.5261 1256.3 94.8892 1256.14 95.201C1256.37 96.6613 1255.11 98.38 1253.29 97.7269C1243.53 94.7846 1235.35 88.2864 1227.85 81.5968C1223.3 77.4726 1219.36 73.816 1226.18 69.372C1233.81 62.3746 1241.62 55.5923 1249.82 49.2658C1250.55 48.506 1251.54 48.3284 1252.37 48.5494C1252.47 48.5554 1252.59 48.5652 1252.71 48.583C1255.63 49.5756 1254.02 53.6979 1254.6 56.0521C1255.02 62.8896 1255.5 69.7193 1255.69 76.5668C1255.84 81.1193 1255.96 85.6757 1256.14 90.2282C1256.2 91.5306 1256.32 92.833 1256.36 94.1354Z" fill="#FE7A04"/>
<path fill-rule="evenodd" clip-rule="evenodd" d="M334.28 32.6799C334.96 44.4153 334.576 56.3026 333.861 68.04C332.492 81.214 330.943 84.4068 316.946 83.6668C310.166 83.0886 309.759 78.8973 310.229 73.1352C310.355 66.0726 310.108 58.9212 308.682 51.9889C301.102 51.5923 293.365 51.7245 285.996 49.6505C280.8 48.6126 280.646 44.3541 281.134 39.9615C281.669 36.8851 280.277 31.6439 283.591 30.012C284.704 28.7194 286.677 28.8812 288.226 28.6148C291.45 28.2221 294.673 27.8314 297.911 27.5532C307.231 26.7441 316.63 26.9355 325.913 28.084C329.11 28.4964 333.694 28.6819 334.28 32.6799Z" fill="#FFDF00"/>
<path fill-rule="evenodd" clip-rule="evenodd" d="M595.613 148.161C595.621 148.554 595.542 148.893 595.4 149.179H591.418H489.472H485.938C485.052 148.177 485.284 147.003 486.007 146.093C485.614 145.347 485.651 144.408 486.168 143.686C488.813 140.076 491.85 136.773 494.827 133.446C504.862 122.226 514.636 110.861 524.021 99.2363C526.111 96.669 528.137 94.0563 530.197 91.4693C530.608 90.9503 531.04 90.3386 531.565 89.9242C531.559 89.9183 531.555 89.9143 531.549 89.9104C531.496 89.8689 531.445 89.8314 531.397 89.786C530.663 90.1333 529.763 90.0939 528.988 89.3598C516.597 76.6594 506.401 62.0153 495.86 47.7916C493.825 44.1271 480.712 31.3498 482.226 28.7786C482.482 28.0997 483.025 27.6794 483.637 27.5097C484.209 26.0988 486.63 25.714 488.284 25.7238C491.773 25.4456 495.273 25.3903 498.77 25.2641C512.956 24.4629 527.153 23.7998 541.367 23.7249C555.409 23.6203 569.437 23.9143 583.442 24.9937C585.875 25.3272 590.587 24.1965 590.544 27.861C590.534 27.9221 590.52 27.9813 590.508 28.0386C590.611 28.0899 590.71 28.1491 590.804 28.2181C595.063 30.598 581.015 43.1484 578.998 45.6466C567.424 57.232 555.44 68.1722 544.113 79.9569C541.505 82.5834 538.823 85.1231 536.196 87.7298C554.951 103.694 572.831 120.75 589.22 139.155C591.09 141.241 593.312 143.508 595.071 145.519C595.54 146.103 595.625 146.744 595.463 147.316C595.558 147.561 595.613 147.845 595.613 148.161Z" fill="#FFDF00"/>
<path fill-rule="evenodd" clip-rule="evenodd" d="M85.6141 44.9007C89.4562 48.6244 90.9835 51.8252 87.1592 56.3421C77.5156 67.8407 66.2261 77.7449 54.8775 87.5701C55.0709 87.8148 55.2623 88.0575 55.4577 88.3002C61.9223 96.1955 68.4895 103.82 74.9956 111.562C78.4746 114.98 79.1791 118.332 74.4608 121.081C72.0514 122.466 69.9202 125.196 67.053 125.377C66.6899 125.205 66.384 125.028 66.1275 124.848C65.3697 125.75 63.9785 126.131 62.9011 125.028C56.5213 118.877 51.5465 111.507 46.5244 104.259C45.1628 102.319 43.7835 100.387 42.3923 98.4668C40.7939 99.8955 39.2034 101.332 37.6306 102.78C31.5172 108.18 25.7373 114.052 19.622 119.41C17.4375 120.982 15.5747 124.025 12.5851 123.672C11.8194 123.493 11.2768 123.139 10.9334 122.703C10.296 122.944 9.54814 122.893 8.86734 122.352C5.86196 119.595 0.660257 114.056 5.03316 110.376C11.3281 104.464 17.7256 98.6621 24.0719 92.8033C26.8582 90.2281 29.6347 87.6471 32.4072 85.062C23.1799 72.9813 13.6093 61.159 4.15897 49.2559C3.61631 48.4508 2.83487 47.6594 2.37114 46.7714C1.53642 46.4676 0.950337 45.6427 0.936523 44.6955C1.62522 41.8046 5.20287 40.5437 7.44062 38.9354C10.521 36.6207 14.1164 36.3819 17.0527 39.0873C22.6826 43.3122 26.5129 49.3388 30.8206 54.799C35.5349 60.9893 39.9887 67.377 44.5235 73.6995C54.6802 64.1328 64.7935 54.5267 74.9463 44.956C76.4776 43.8825 77.2492 41.6388 79.0725 41.1395C79.8658 41.0192 80.5328 41.3467 80.959 41.8795C82.9876 41.5461 84.3729 43.5904 85.6141 44.9007Z" fill="#FFDF00"/>
<path fill-rule="evenodd" clip-rule="evenodd" d="M68.6711 131.281C66.4689 128.905 63.9371 126.719 62.2144 123.948C61.4843 122.577 62.1651 120.718 63.7654 120.42C65.6776 120.055 66.0742 121.786 67.0609 122.875C66.6623 119.883 69.0618 117.308 69.642 114.441C70.5122 110.07 73.7189 110.938 76.0514 113.699C77.7504 115.4 79.6606 117.063 80.6552 119.297C82.0247 122.587 78.1846 124.779 76.3079 126.899C74.1057 128.552 71.8679 132.905 68.6711 131.281ZM69.5177 125.484C69.8058 125.78 70.0939 126.078 70.38 126.378C70.5142 126.253 70.6445 126.127 70.7767 126.001C70.3465 125.851 69.9617 125.578 69.6953 125.203C69.6085 125.186 69.5197 125.166 69.4328 125.142C69.3125 125.111 69.1941 125.073 69.0796 125.032C69.2237 125.182 69.3697 125.334 69.5177 125.484ZM72.9237 118.299C72.6849 118.918 72.4382 119.538 72.1896 120.154C72.1462 120.262 72.1027 120.371 72.0574 120.479C72.4895 120.162 72.9315 119.854 73.3874 119.568C73.9557 119.212 74.6345 119.13 75.2463 119.303C75.041 119.072 74.8299 118.843 74.6148 118.62C74.1728 118.18 73.7248 117.746 73.2769 117.312C73.1664 117.642 73.0499 117.971 72.9237 118.299Z" fill="#FFDF00"/>
<path fill-rule="evenodd" clip-rule="evenodd" d="M69.3175 127.99C66.5924 127.035 67.9559 122.974 70.6219 123.204C71.7092 123.366 72.9564 123.755 73.4813 124.795C74.2824 126.356 72.7393 128.248 71.0718 127.865C70.5351 128.128 69.8859 128.181 69.3175 127.99Z" fill="#FFDF00"/>
<path fill-rule="evenodd" clip-rule="evenodd" d="M10.0026 126.468C6.11119 124.767 3.43141 121.202 0.712162 118.078C-1.05792 116.26 0.585868 113.804 2.2928 112.637C3.6761 111.544 5.11269 110.522 6.50981 109.484C7.53594 108.479 9.23103 107.883 10.2927 109.178C12.5186 112.29 6.49007 114.421 4.91338 116.199C6.7841 118.182 8.4338 120.426 10.7722 121.9C12.3035 120.383 13.6296 119.183 15.0208 117.663C16.412 116.047 19.1845 117.432 18.7287 119.516C18.4425 120.746 17.2704 121.569 16.483 122.484C14.8274 123.992 12.5758 127.798 10.0026 126.468Z" fill="#FFDF00"/>
<path fill-rule="evenodd" clip-rule="evenodd" d="M416.769 78.5658C418.639 80.7069 416.139 83.6274 413.603 82.8104C400.494 81.6639 386.776 81.2337 374.944 74.8224C352.142 60.1152 365.421 38.8348 389.456 54.2129C398.687 59.5429 405.671 67.6079 412.976 75.1776C414.185 76.3656 415.535 77.4055 416.769 78.5658Z" fill="#261447"/>
<path fill-rule="evenodd" clip-rule="evenodd" d="M485.986 117.646C486.02 121.705 485.893 125.77 486.025 129.825C485.879 132.002 482.673 132.507 481.925 130.389C481.72 129.863 481.678 129.316 481.635 128.734C481.601 128.317 481.581 127.899 481.566 127.481C479.865 126.157 480.366 123.457 479.723 121.563C478.134 114.64 472.34 109.877 467.697 104.979C453.781 90.3584 433.894 83.1222 420.404 68.1466C410.911 59.1877 410.123 43.8036 418.697 33.9508C430.212 21.8562 450.332 28.4136 460.08 39.63C477.286 61.8517 486.033 89.6322 485.986 117.646Z" fill="#261447"/>
<path fill-rule="evenodd" clip-rule="evenodd" d="M482.841 133.343C484.781 135.309 482.535 139.784 479.703 138.423C456.312 127.264 429.358 135.775 405.315 127.534C390.819 123.674 382.136 106.315 394.732 95.1595C416.308 81.1764 443.013 99.7376 461.265 111.85C469.474 117.867 476.607 125.322 482.841 133.343Z" fill="#261447"/>
<path fill-rule="evenodd" clip-rule="evenodd" d="M11.7831 75.4203C20.8742 83.136 16.4974 85.7408 8.0989 90.4433C4.36536 92.1166 -0.860017 98.2537 -4.19889 98.0129C-9.19142 96.7796 -6.87078 84.6732 -7.30294 80.5016C-6.85105 76.7997 -7.19441 66.3883 -4.92113 64.0716C-2.96359 60.6637 0.5963 64.7209 2.40979 66.3154C5.59277 69.2892 8.65538 72.3912 11.7831 75.4203Z" fill="#261447"/>
<path fill-rule="evenodd" clip-rule="evenodd" d="M93.9145 70.116C96.7798 76.2689 94.0408 89.8217 93.6264 96.9494C93.1094 100.336 93.4251 107.369 88.1563 105.839C82.9092 103.603 78.9685 98.9858 75.2034 94.8734C73.8595 92.9159 70.2365 91.574 70.939 88.8114C68.6835 88.5588 68.4467 85.4666 70.4141 84.5588C73.5971 82.2126 76.6261 79.665 79.7775 77.2713C82.4277 75.2645 85.143 73.3325 87.7478 71.2605C89.3798 69.7332 92.0517 67.8684 93.9145 70.116Z" fill="#261447"/>
<path fill-rule="evenodd" clip-rule="evenodd" d="M52.689 128.566C60.2942 138.711 53.3757 139.613 44.0952 138.744C39.8485 138.543 35.5842 138.496 31.3356 138.632C27.0022 139.165 20.3126 139.039 23.5153 132.813C26.2858 129.298 38.9704 113.744 42.9743 115.252C44.7089 114.338 46.0014 115.921 46.3822 117.47C48.4325 121.194 50.5677 124.88 52.689 128.566Z" fill="#261447"/>
<path fill-rule="evenodd" clip-rule="evenodd" d="M103.712 46.3867C90.6762 42.5939 86.2678 28.088 82.4928 16.5736C63.9632 16.9604 45.4139 17.0866 26.8883 17.9056C17.2644 18.4542 7.55559 17.2346 -2.01309 18.5035C-2.31107 28.0702 -9.72289 42.2071 -20 44.1055V39.032C-13.0716 36.5377 -8.8566 28.2004 -7.30754 21.3826C-6.77474 17.0215 -7.5917 14.0063 -1.99139 13.5169C5.21127 12.6979 12.481 13.3432 19.7093 13.2564C40.1708 12.6526 60.6303 11.9619 81.1036 11.9402C85.885 10.8825 87.6866 15.7902 88.5095 19.5651C89.9323 24.6169 92.0082 29.5225 94.9189 33.9014C97.3855 37.3942 100.539 40.81 104.878 41.7611C107.848 42.4794 106.711 47.1938 103.712 46.3867Z" fill="#FE7A04"/>
<path fill-rule="evenodd" clip-rule="evenodd" d="M87.035 149.177C86.3009 147.023 87.9802 143.524 88.3887 141.501C90.879 133.042 98.1843 127.923 106.409 125.792C106.701 112.353 105.669 98.8931 104.917 85.4764C104.209 72.3636 104.781 59.2133 103.897 46.1084C103.22 43.4365 106.628 41.483 108.073 44.1884C108.657 46.4084 108.481 48.8139 108.72 51.103C109.397 65.7648 108.931 80.4661 110.231 95.1043C110.563 101.979 110.908 108.847 111.151 115.724C110.922 119.962 112.298 124.779 110.423 128.702C109.134 130.38 106.95 130.818 105.061 131.498C98.2099 133.399 93.5628 139.183 92.2663 146.062C92.063 146.993 91.9249 148.203 91.5361 149.177H87.035Z" fill="#FE7A04"/>
<path fill-rule="evenodd" clip-rule="evenodd" d="M-2.68797 149.177C-4.59026 143.202 -8.33564 137.712 -13.0361 133.576C-14.9187 131.706 -18.1549 130.642 -20 128.728V41.035C-18.0859 40.7173 -17.1406 42.9866 -17.3064 44.7567C-16.3158 71.6354 -15.0904 98.6247 -16.5605 125.501C-9.36375 129.336 -3.9588 135.613 -0.144348 142.74C0.747597 144.364 1.4876 146.077 1.80925 147.913C1.90002 148.386 1.84082 148.812 1.67703 149.177H-2.68797Z" fill="#FE7A04"/>
<path fill-rule="evenodd" clip-rule="evenodd" d="M-1.20183 149.178C-1.45047 148.268 -1.12487 147.192 -0.286203 146.677C-0.288176 146.675 -0.292122 146.675 -0.294095 146.673C1.75225 145.716 4.23864 146.113 6.45667 145.892C13.3456 145.691 20.2345 145.47 27.1253 145.474C37.7616 145.558 48.4018 145.162 59.0361 145.48C68.3028 145.503 77.5952 144.87 86.8561 145.367C88.9182 145.555 89.4747 147.883 88.4959 149.18L-1.20183 149.178Z" fill="#FE7A04"/>
<path fill-rule="evenodd" clip-rule="evenodd" d="M391.09 43.7444C380.647 43.0892 380.902 27.6972 390.267 25.7535C405.077 20.7925 406.979 46.3373 391.09 43.7444ZM393.644 39.0202C400.102 37.9448 397.659 28.5261 391.289 29.9508C389.186 31.64 386.849 34.6217 388.533 37.333C389.707 38.9077 391.822 39.1189 393.644 39.0202Z" fill="#FE7A04"/>
<path fill-rule="evenodd" clip-rule="evenodd" d="M370.785 105.216C361.009 102.538 362.748 88.9237 371.947 86.9682C374.009 84.8054 377.796 86.6485 379.9 87.9825C388.034 94.4037 380.48 107.822 370.785 105.216ZM372.991 100.888C378.515 101.058 380.843 92.3968 374.937 91.126C374.258 91.7555 373.344 91.7338 372.683 91.4733C368.074 93.1822 367.219 100.495 372.991 100.888Z" fill="#FE7A04"/>
<path fill-rule="evenodd" clip-rule="evenodd" d="M382.08 145.211C368.606 143.141 371.93 124.432 385.358 126.962C397.316 129.663 394.469 146.764 382.08 145.211ZM383.612 140.694C385.198 140.552 386.803 139.765 387.856 138.569L387.868 138.608C390.031 134.095 384.271 130.107 380.291 132.108C376.135 134.979 378.785 141.037 383.612 140.694Z" fill="#FE7A04"/>
<path fill-rule="evenodd" clip-rule="evenodd" d="M961.735 149.177C961.77 147.8 961.94 146.387 961.786 145.122C961.709 138.877 961.462 132.11 961.02 126.101C959.396 106.621 955.698 86.3821 944.586 69.9068C925.686 46.5386 896.818 38.6453 870.04 53.7906C839.134 69.6562 833.19 104.57 835.964 136.185C836.328 140.14 836.894 144.181 837.898 148.011C838.088 148.41 838.135 148.805 838.074 149.175H833.606C833.249 148.443 832.967 147.672 832.736 146.879C833.283 142.863 832.371 137.028 832.598 134.818C832.071 123.641 832.176 112.454 832.093 101.269C835.639 81.2021 844.906 63.2054 863.183 52.0698C892.12 33.118 925.275 39.403 947.379 65.3721C957.604 78.8953 961.95 95.8659 964.525 112.375C964.616 116.898 965.417 122.419 965.164 124.888C965.427 132.986 965.52 141.091 966.082 149.177H961.735Z" fill="#FE7A04"/>
<path fill-rule="evenodd" clip-rule="evenodd" d="M653.796 69.2043C642.516 53.7472 634.011 36.3642 622.305 21.2268C619.572 18.3575 624.231 15.6027 626.161 18.8765C634.116 28.5754 639.955 39.8194 646.836 50.2781C650.21 56.0185 653.802 61.1906 657.614 66.5009C659.159 68.8649 655.508 71.4815 653.796 69.2043Z" fill="#261447"/>
<path fill-rule="evenodd" clip-rule="evenodd" d="M681.017 78.4514C676.546 76.8648 684.658 66.2049 685.814 63.3356C690.639 55.2943 695.269 47.1425 699.799 38.9374C703.318 32.3899 707.878 26.2785 710.317 19.2159C682.578 22.0536 687.732 13.7261 674.476 40.1628C671.48 46.0098 668.327 51.7679 665.171 57.5301C663.245 61.013 661.231 64.4624 659.486 68.0421C659.261 69.453 657.505 70.2955 656.256 69.5654C652.838 67.3809 659.046 60.2947 660.007 57.4591C666.714 45.5895 672.317 33.124 679.281 21.4024C683.14 12.8894 697.498 16.102 705.358 14.9022C708.875 14.8884 715.714 12.7177 715.154 18.4759C714.209 24.5123 710.515 29.6943 707.574 34.9236C702.777 43.0162 698.483 51.401 693.637 59.4679C690.961 63.9119 688.255 68.34 686.039 73.0385C684.842 75.0809 684.232 79.4657 681.017 78.4514Z" fill="#261447"/>
<path fill-rule="evenodd" clip-rule="evenodd" d="M723.206 138.06C723.249 142.076 723.476 146.411 724.806 148.098C724.084 148.522 723.176 148.88 722.144 149.178H688.675C687.41 148.37 686.368 147.121 685.499 145.845C676.917 132.748 669.17 118.978 662.609 104.746C661.9 103.246 661.2 101.747 660.659 100.178C659.862 97.7762 663.491 96.1403 664.748 98.3682C669.216 107.469 673.316 116.768 678.684 125.405C682.747 131.978 685.967 139.396 691.196 145.081C701.243 145.081 711.322 146.774 721.189 144.357C710.699 120.631 695.033 99.8008 680.014 78.9309L680.021 78.9289C678.37 77.5318 679.946 74.6487 682.038 75.2565C684.043 76.1011 685.05 78.3941 686.366 80.0201C696.299 94.4018 706.965 108.351 715.678 123.528C718.239 128.321 720.824 133.156 723.206 138.06Z" fill="#261447"/>
<path fill-rule="evenodd" clip-rule="evenodd" d="M596.518 149.177C593.69 146.403 598.537 139.461 599.739 136.28C604.011 127.717 609.033 119.554 613.858 111.297C618.531 103.469 623.397 95.7633 627.851 87.8068C629.096 85.8907 630.319 81.9164 633.275 83.3096C634.303 83.874 634.805 85.1901 634.347 86.2873C623.45 106.098 609.789 124.72 600.786 145.513C610.071 145.983 619.209 146.14 628.443 145.497C634.743 133.931 640.853 122.241 648.247 111.299C650.887 108.14 659.142 90.8931 663.611 98.1313C663.505 97.9556 663.361 97.8352 663.203 97.7109C665.263 99.2027 663.221 102.459 661.044 101.358C649.849 115.39 641.257 131.35 632.948 147.206C632.581 148.049 632.074 148.69 631.468 149.175H596.518V149.177Z" fill="#261447"/>
<path fill-rule="evenodd" clip-rule="evenodd" d="M630.224 83.9746C623.067 71.1993 616.045 58.3391 608.663 45.6802C603.692 36.7213 597.364 28.5359 593.04 19.2257C591.558 16.3881 595.937 14.099 596.997 17.3491C606.538 34.8663 619.104 53.2459 628.566 71.8209C630.303 75.2545 632.381 78.4986 634.263 81.8474C635.42 84.3417 631.698 86.3643 630.224 83.9746Z" fill="#261447"/>
<path fill-rule="evenodd" clip-rule="evenodd" d="M623.732 19.9184C617.036 18.9791 610.26 18.6792 603.499 18.8193C600.681 18.4405 594.742 20.6545 594.132 16.6269C594.142 15.0838 595.612 14.0301 596.993 14.4721C602.674 14.33 608.879 14.0498 614.408 14.4523C618.084 15.0305 622.601 14.2096 625.796 16.1711C627.11 17.7004 625.719 20.2026 623.732 19.9184Z" fill="#261447"/>
<path fill-rule="evenodd" clip-rule="evenodd" d="M762.019 76.2747C766.125 85.2375 746.418 96.6631 740.45 101.604C748.091 108.406 771.844 110.309 757.839 124.01C752.555 129.529 746.38 134.07 740.47 138.879C737.852 140.24 732.066 147.668 729.066 146.669C728.76 148.025 727.239 149.205 725.755 148.773C725.388 148.672 725.072 148.439 724.804 148.098C723.474 146.411 723.247 142.075 723.204 138.06C723.168 134.991 723.237 132.112 722.998 130.731C722.481 116.969 722.063 103.199 721.382 89.4407C720.058 70.7849 719.302 52.1191 718.955 33.4198C718.779 29.3469 718.505 25.6114 718.061 21.6489C718.053 19.8197 716.763 17.3431 718.691 16.1138C718.979 16.0013 719.245 15.9263 719.496 15.8829C719.62 15.796 719.752 15.7073 719.896 15.6204C722.6 15.4093 724.976 17.7535 727.389 18.7777C734.041 22.6573 739.993 26.6553 746.228 30.9847C752.817 34.9649 753.279 38.1361 747.894 43.7167C742.874 48.9973 737.994 54.4259 732.82 59.5546C738.858 64.6142 746.761 66.9901 753.39 71.2328C756.178 72.9969 759.882 73.6541 762.019 76.2747Z" fill="#FFDF00"/>
<path fill-rule="evenodd" clip-rule="evenodd" d="M832.595 134.82C832.368 137.03 833.282 142.865 832.733 146.881C832.615 147.751 832.429 148.536 832.147 149.178H827.131C827.018 148.704 827.04 148.199 827.218 147.751C827.228 147.727 827.235 147.703 827.249 147.682C826.762 147.926 826.17 147.974 825.532 147.707C821.203 146.241 817.568 143.445 813.499 141.454C807.471 137.991 794.354 133.107 793.255 125.665C793.288 118.974 810.508 107.815 814.859 101.796C809.791 97.8255 791.755 91.5701 792.013 85.0226C792.457 82.4316 795.137 81.1884 796.957 79.6156C804.175 73.6957 812.435 68.711 818.296 61.3367C811.228 56.3185 804.11 51.0596 798.196 44.6897C792.308 38.3415 798.368 34.2034 803.001 29.864C810.316 22.8054 817.373 15.4311 824.489 8.19882C825.491 7.06811 827.575 7.48646 828.013 8.95659C828.048 9.06907 828.074 9.18548 828.088 9.30388C828.802 10.7582 828.599 12.6132 828.848 14.1879C829.434 21.3156 829.801 28.4531 830.073 35.5965C831.358 54.5958 831.687 73.6266 831.971 92.6593C832.031 95.5286 832.064 98.4018 832.084 101.273C832.173 112.456 832.068 123.643 832.595 134.82Z" fill="#FFDF00"/>
<path fill-rule="evenodd" clip-rule="evenodd" d="M947.648 147.03C947.97 147.644 948.106 148.418 948.071 149.179H943.471H943.461H943.435H943.392H943.333H943.258H943.167H943.062H942.944H942.812H942.666H942.508H942.338H942.156H941.965H941.762H941.551H941.33H941.101H940.864H940.619H940.369H940.112H939.85H939.581H939.309H939.033H938.752H938.47H938.186H937.892H937.604H937.316H937.028H936.74H936.454H936.169H935.887H935.607H935.331H935.058H934.79H934.528H934.271H934.02H933.776H933.539H933.31H933.089H932.878H932.677H932.485H932.304H932.134H931.976H931.83H931.698H931.579H931.475H931.384H931.309H931.25H931.206H931.181H931.171H926.593C925.719 139.559 925.125 129.661 919.854 121.482C907.455 104.103 888.707 113.194 882.976 130.835C881.528 135.733 881.332 140.923 881.686 145.99C881.615 146.963 882.009 148.12 882.146 149.181H877.725H877.709H877.666H877.595H877.496H877.372H877.222H877.048H876.853H876.634H876.393H876.133H875.853H875.555H875.239H874.907H874.56H874.197H873.82H873.429H873.027H872.614H872.19H871.758H871.318H870.87H870.416H869.956H869.491H869.023H868.551H868.078H867.604H867.13H866.657H866.185H865.716H865.25H864.79H864.336H863.888H863.448H863.016H862.594H862.181H861.779H861.388H861.011H860.648H860.299H859.967H859.652H859.354H859.073H858.813H858.574H858.355H858.16H857.986H857.836H857.712H857.613H857.542H857.499H857.483H853.169C851.729 143.08 853.649 126.435 853.771 122.999C855.665 87.3845 883.233 64.4011 918.323 75.9727C937.302 85.4585 944.361 108.428 946.206 128.187C946.685 133.452 947.327 138.701 947.619 143.976C947.688 144.889 947.832 146.052 947.648 147.03Z" fill="#FFDF00"/>
<path fill-rule="evenodd" clip-rule="evenodd" d="M853.466 45.3939C848.191 39.7798 843.958 33.2579 838.707 27.6063C837.349 26.2605 835.787 23.6183 838.17 22.4422C839.06 22.0475 840.27 22.3198 840.791 23.1861C842.042 24.7825 843.5 26.2053 844.822 27.7366C848.951 32.4844 852.512 37.7019 856.751 42.357C858.509 44.427 855.407 47.31 853.466 45.3939Z" fill="#FFDF00"/>
<path fill-rule="evenodd" clip-rule="evenodd" d="M855.689 46.1617C852.534 46.4676 851.889 37.6843 850.541 35.1565C847.455 36.3405 845.229 30.4343 843.658 28.4925C841.442 28.8142 840.177 26.5527 840.491 24.5913C839.265 25.274 837.487 24.463 837.347 23.0126C837.118 21.3807 838.65 20.615 839.822 19.8829C842.261 18.4523 844.467 16.3921 847.237 15.6521C853.26 14.9377 853.773 26.533 855.261 30.7086C856.116 34.4777 857.004 38.2467 857.745 42.0395C858.217 43.6951 857.848 46.1657 855.689 46.1617Z" fill="#FFDF00"/>
<path fill-rule="evenodd" clip-rule="evenodd" d="M878.52 36.0977C874.161 28.9503 869.948 21.2662 867.6 13.2525C867.801 11.7922 869.451 10.8687 870.771 11.6225C872.772 13.4656 873.176 16.5677 874.508 18.9041C876.892 24.2558 879.386 28.8852 882.26 33.8047C883.357 36.0543 880.036 38.0987 878.52 36.0977Z" fill="#FFDF00"/>
<path fill-rule="evenodd" clip-rule="evenodd" d="M880.458 36.5496C878.374 35.1742 879.209 30.1698 878.526 27.7525C877.526 27.9143 876.492 27.3776 876.057 26.4225C875.988 26.2686 875.921 26.1127 875.86 25.9548C874.118 24.1394 873.715 21.351 872.847 19.0462C871.746 16.615 873.017 12.9703 876.125 14.4917C876.166 14.2746 876.215 14.0596 876.28 13.8464C874.532 14.0773 872.76 14.2964 871.065 14.77C869.467 15.9954 867.089 14.1425 867.898 12.2757C868.379 9.69062 880.488 8.33693 882.023 10.1938C885.076 12.9387 883.343 24.8636 883.86 29.4219C883.775 31.9735 884.825 38.0829 880.458 36.5496Z" fill="#FFDF00"/>
<path fill-rule="evenodd" clip-rule="evenodd" d="M908.4 37.2068C905.44 36.1372 906.26 30.831 905.627 28.2262C905.187 23.575 904.407 18.9554 904.281 14.2806C900.463 3.96009 912.997 8.41981 918.345 9.50711C920.782 10.03 922.927 12.0271 921.518 14.6042C920.153 17.5031 918.493 20.4256 917.205 23.3106C915.332 26.2134 912.313 38.3513 908.4 37.2068Z" fill="#FFDF00"/>
<path fill-rule="evenodd" clip-rule="evenodd" d="M932.708 43.9141C929.874 41.9447 934.442 34.521 935.06 31.64C936.291 28.309 937.554 24.982 938.663 21.6036C939.275 20.1059 939.322 18.1345 940.737 17.136C943.709 16.1138 946.76 18.618 949.1 20.248C958.6 27.3875 953.663 27.8907 947.5 34.3908C944.579 36.7825 936.465 46.1854 932.708 43.9141Z" fill="#FFDF00"/>
<path fill-rule="evenodd" clip-rule="evenodd" d="M1090.18 115.074C1090.18 115.149 1090.19 115.226 1090.19 115.301C1090.19 115.386 1090.18 115.471 1090.18 115.556C1090.18 115.54 1090.18 115.524 1090.18 115.508C1090.03 119.783 1089.91 124.055 1089.78 128.325C1089.7 130.782 1089.67 133.243 1089.67 135.702C1089.67 136.039 1089.67 136.374 1089.66 136.714C1089.65 137.716 1089.64 138.721 1089.67 139.723C1089.7 141.053 1089.73 142.387 1089.77 143.719C1089.71 145.541 1089.67 147.36 1089.65 149.179H1085.94H970.847H966.082C965.519 141.095 965.427 132.99 965.164 124.89C965.417 122.421 964.614 116.9 964.525 112.377C964.464 109.298 964.73 106.68 965.884 105.802C966.003 105.735 966.121 105.681 966.24 105.64C966.642 105.373 967.143 105.223 967.714 105.267C983.439 105.74 999.009 104.154 1014.69 103.445C1037.12 102.459 1059.6 102.526 1081.96 100.76C1083.49 100.754 1085.75 100.191 1086.89 101.212C1087.23 101.076 1087.61 101.024 1087.99 101.089C1088.93 101.271 1089.57 102.167 1090.02 103.422C1090.03 105.693 1090.04 107.964 1090.06 110.236C1090.06 111.85 1090.13 113.46 1090.18 115.074Z" fill="#261447"/>
<path fill-rule="evenodd" clip-rule="evenodd" d="M964.327 113.289C964.477 110.634 962.541 104.724 965.73 103.623C966.529 103.402 967.552 103.728 968.019 104.434C968.682 105.172 969.016 106.214 968.497 107.126C968.542 109.024 968.507 110.924 968.592 112.821C968.923 115.58 964.598 116.057 964.327 113.289Z" fill="#261447"/>
<path fill-rule="evenodd" clip-rule="evenodd" d="M966.319 108.01C963.556 106.143 965.174 102.617 968.363 102.915C972.786 102.85 977.218 103.163 981.642 102.893C1009.01 100.582 1036.54 101.285 1063.96 102.114C1069.32 102.269 1074.68 102.457 1080.03 102.735C1081.19 102.794 1082.14 103.728 1082.11 104.912C1082.08 106.078 1081.09 107.005 1079.93 106.988C1070.72 106.907 1061.52 106.621 1052.32 106.331C1034.01 105.672 1015.67 105.843 997.359 106.238C987.96 106.715 978.636 107.886 969.208 107.313C968.622 108.255 967.266 108.633 966.319 108.01Z" fill="#261447"/>
<path fill-rule="evenodd" clip-rule="evenodd" d="M966.462 107.422C965.193 107.394 964.278 106.34 964.256 105.109C964.096 103.321 964.818 101.427 966.797 101.172C970.813 100.14 975.01 100.024 979.133 99.8107C993.049 98.8833 1006.83 100.639 1020.65 101.932C1039.97 103.363 1059.36 100.379 1078.71 101.516C1080.18 101.571 1081.64 101.693 1083.07 101.378C1085.09 101.387 1085.86 104.219 1084.15 105.297C1083.3 105.92 1082.18 105.881 1081.18 105.891C1063.14 105.228 1045.16 107.106 1027.15 107.108C1007.75 106.163 988.098 102.609 968.745 105.539C968.623 106.634 967.524 107.446 966.462 107.422Z" fill="#261447"/>
<path fill-rule="evenodd" clip-rule="evenodd" d="M1041.14 106.577C1022.43 103.374 1003.3 105.409 984.516 103.941C981.868 103.741 982.038 99.6666 984.723 99.7218C998.718 100.896 1012.73 99.5146 1026.73 100.531C1031.76 101.054 1036.76 101.889 1041.79 102.411C1044.48 102.792 1043.84 107.009 1041.14 106.577Z" fill="#261447"/>
<path fill-rule="evenodd" clip-rule="evenodd" d="M1085.05 149.177C1085.13 142.837 1085.05 136.495 1084.74 130.16C1084.58 121.132 1083.94 111.872 1084.98 102.94C1086.31 100.748 1089.54 102.404 1088.94 104.789C1088.51 117.152 1089.09 129.474 1089.45 141.807C1089.47 144.264 1089.47 146.721 1089.44 149.177H1085.05Z" fill="#261447"/>
<path fill-rule="evenodd" clip-rule="evenodd" d="M1090.26 147.999C1090.17 148.406 1090.1 148.801 1090.05 149.179H1085.94C1085.55 140.702 1085.07 132.234 1084.6 123.765C1084.36 118.991 1084.08 114.747 1084.15 110.07C1084.21 107.355 1088.43 107.43 1088.36 110.171C1088.53 119.07 1089.15 127.871 1089.66 136.716C1089.8 139.19 1089.93 141.669 1090.04 144.157C1089.9 145.085 1090.08 146.502 1090.26 147.999Z" fill="#261447"/>
<path fill-rule="evenodd" clip-rule="evenodd" d="M1215.29 3.75484C1215.34 4.07452 1215.33 4.41785 1215.27 4.78884C1215.08 6.09321 1214.51 7.90866 1213.4 8.67432C1210.47 18.6416 1204.21 27.4604 1197.51 35.2748C1188.71 44.1193 1177.38 51.0437 1165.12 53.3348C1157.46 49.9683 1148.39 49.2638 1140.67 51.8725C1118.64 46.4123 1097.43 32.6483 1087.98 11.8454C1085.1 6.57468 1087.87 4.22643 1089.81 4.80462C1091.7 3.6739 1094.34 4.47507 1096.47 4.20867C1105.54 4.24024 1114.59 3.99559 1123.65 3.61868C1126.6 3.49831 1129.54 3.35815 1132.49 3.21213C1151.04 2.29058 1169.58 0.986256 1188.15 0.49687C1191.89 0.964549 1205.47 -1.07984 1211.9 0.83429C1211.18 2.27285 1211.28 3.6147 1213.13 4.56584C1214.13 4.85 1214.78 4.40012 1215.29 3.75484Z" fill="#261447"/>
<path fill-rule="evenodd" clip-rule="evenodd" d="M1101.67 149.177C1103.7 144.449 1109.31 138.279 1110.91 136.643C1114.15 133.18 1118.56 130.186 1122.64 128.11C1148.44 114.226 1177.84 115.24 1196.79 139.585C1197.78 141.008 1201.06 145.493 1202.62 149.179H1197.44L1197.41 149.13C1193.66 141.813 1187.59 135.634 1180.88 131.112C1172.78 126.356 1163.48 122.812 1153.96 123.936C1135.82 125.12 1116.14 132.864 1106.85 149.179L1101.67 149.177Z" fill="#FE7A04"/>
<path fill-rule="evenodd" clip-rule="evenodd" d="M1215.65 139.577C1216.22 141.807 1219.54 146.571 1218.83 149.179H1214.83C1212.06 144.536 1209.42 131.159 1199.01 124.021C1173.53 102.859 1128.1 102.467 1105.45 127.958C1100.72 133.742 1097.64 140.714 1095.12 147.693C1094.99 148.185 1094.84 148.68 1094.7 149.179H1090.05C1090.1 148.802 1090.17 148.406 1090.26 147.999C1092.01 139.561 1100.49 125.355 1103.86 122.739C1112.99 113.373 1125.07 107.591 1138.03 105.131C1113.96 96.3671 1111.06 64.3439 1136.86 53.5024C1138.08 52.8591 1139.36 52.3204 1140.67 51.8725C1148.39 49.2637 1157.46 49.9682 1165.12 53.3347C1174.2 57.3287 1181.29 65.072 1181.71 75.4735C1181.51 87.4693 1173.15 98.4134 1162.97 104.148C1162.82 104.197 1162.67 104.249 1162.53 104.302C1177.92 106.09 1192.79 112.144 1203.85 122.052C1209.48 126.591 1213.04 132.943 1215.65 139.577Z" fill="#FE7A04"/>
<path fill-rule="evenodd" clip-rule="evenodd" d="M1460 86.4807V149.177H1401.95H1397.13C1398.51 138.409 1405.16 120.74 1408.04 116.769C1418.28 96.892 1438.84 86.1729 1460 81.65L1460 86.4807Z" fill="#261447"/>
<path fill-rule="evenodd" clip-rule="evenodd" d="M1460 58.8364C1458.74 59.0475 1457.49 59.2784 1456.24 59.5429C1422.24 67.1244 1393.01 94.2873 1385.2 128.534C1383.55 135.313 1382.45 142.225 1381.91 149.177H1377.14H1377.12H1377.08H1377.02H1376.93H1376.82H1376.68H1376.52H1376.35H1376.15H1375.93H1375.69H1375.44H1375.17H1374.88H1374.58H1374.26H1373.93H1373.59H1373.24H1372.87H1372.5H1372.11H1371.72H1371.32H1370.92H1370.5H1370.08H1369.66H1369.24H1368.81H1368.38H1367.95H1367.52H1367.09H1366.66H1366.24H1365.81H1365.4H1364.98H1364.58H1364.18H1363.78H1363.4H1363.02H1362.66H1362.31H1361.96H1361.63H1361.32H1361.02H1360.73H1360.46H1360.21H1359.97H1359.75H1359.55H1359.37H1359.22H1359.08H1358.97H1358.88H1358.81H1358.78H1358.76H1354.4C1354.28 148.67 1354.26 148.13 1354.22 147.644C1351.98 129.227 1357.81 111.063 1365.82 94.7786C1382.96 58.5325 1415.93 32.009 1456.13 26.8112C1457.2 26.829 1458.58 26.531 1459.99 26.2823V31.1801V54.1201V58.8364H1460Z" fill="#261447"/>
<path fill-rule="evenodd" clip-rule="evenodd" d="M1359.4 75.0275C1358.6 74.3902 1358.27 73.3325 1358.66 72.3655C1358.69 72.2984 1358.72 72.2333 1358.75 72.1682C1356.6 62.0292 1353.66 52.0659 1351.33 41.9625C1350.67 37.4041 1345.7 25.6055 1353.57 25.8758C1361.94 29.1457 1370.73 30.6849 1379.46 31.7307C1384.61 33.0371 1393.27 31.4524 1396.1 36.7587C1396.19 40.1904 1391.18 41.7907 1389.44 44.1607C1382.64 50.7082 1376.14 57.5735 1369.92 64.6735C1367.4 67.6927 1365.05 70.852 1362.74 74.035C1362.22 75.3315 1360.52 75.8859 1359.4 75.0275ZM1356.69 44.0936C1358.44 51.7166 1360.45 59.2764 1362.34 66.8698C1370.5 56.4861 1379.63 46.7359 1389.49 37.9447C1377.63 36.1194 1365.3 35.6754 1354.05 31.1367C1354.44 35.5412 1355.66 39.8056 1356.69 44.0936Z" fill="#261447"/>
<path fill-rule="evenodd" clip-rule="evenodd" d="M1280.08 149.177C1279.71 128.209 1278.26 107.28 1277.96 86.3111C1276.86 60.5453 1277.31 34.7164 1275.68 8.97628C1275.63 6.66551 1275.08 4.24425 1275.71 1.98676C1276.46 -0.132599 1279.89 0.524484 1279.79 2.73856C1282.03 38.9531 1281.47 75.2959 1283.14 111.544C1283.93 124.073 1284.17 136.627 1284.44 149.175H1280.08V149.177Z" fill="#FFDF00"/>
<path fill-rule="evenodd" clip-rule="evenodd" d="M191.683 139.846C190.977 138.977 191.064 137.543 191.995 136.854C193.96 135.4 195.807 133.766 197.396 132.304C202.177 127.915 206.278 122.828 209.293 117.07C210.963 114.236 212.308 111.246 213.603 108.229C214.098 107.124 215.322 106.512 216.492 106.972C219.902 108.73 215.845 113.579 215.03 116.032C211.967 122.019 208.334 127.753 203.505 132.481C201.404 134.214 194.077 143.003 191.683 139.846Z" fill="#FE7A04"/>
<path fill-rule="evenodd" clip-rule="evenodd" d="M216.117 53.534C213.005 40.7251 211.754 35.3261 200.346 27.563C199.085 26.5092 197.094 26.2744 196.256 24.8082C195.423 23.1013 197.353 21.2049 199.064 21.9627C204.555 24.5517 209.175 28.8851 213.258 33.3034C217.327 38.8287 218.501 45.8419 220.261 52.3362C221.037 55.0041 216.867 56.2355 216.117 53.534Z" fill="#FE7A04"/>
<path fill-rule="evenodd" clip-rule="evenodd" d="M780.856 61.1906C775.335 60.9913 769.795 60.8019 764.272 60.9558C763.005 61.3012 761.415 61.0111 761.04 59.5587C760.542 54.3156 770.334 56.9302 773.568 56.3915C777.811 56.5316 782.075 56.4487 786.302 56.869C787.4 56.9993 788.256 57.9484 788.27 59.0555C787.944 62.6252 783.254 61.013 780.856 61.1906Z" fill="#FE7A04"/>
<path fill-rule="evenodd" clip-rule="evenodd" d="M765.663 105.555C763.25 104.957 763.68 101.36 766.121 101.218C773.065 100.754 780.25 101.147 787.042 100.391C789.657 100.268 790 104.387 787.388 104.703C780.195 105.602 772.886 105.354 765.663 105.555Z" fill="#FE7A04"/>
<path fill-rule="evenodd" clip-rule="evenodd" d="M1248.86 39.3616C1247.64 39.6537 1246.61 38.7499 1245.56 38.2901C1243.56 37.3824 1241.53 36.5437 1239.53 35.6537C1234.51 33.3153 1229.22 31.5887 1224.17 29.4062C1215.92 23.8039 1241.87 11.2456 1245.91 8.49875C1252.8 3.47662 1252.36 13.6827 1252.44 17.9727C1252.61 23.5335 1252.71 29.1023 1252.3 34.6533C1252.38 36.8062 1251.94 40.6936 1248.86 39.3616ZM1229.28 26.4777C1235.59 28.824 1241.79 31.5019 1247.9 34.3336C1248.38 27.0836 1248.16 19.8 1247.77 12.5519C1240.78 16.4808 1233.72 20.4769 1227.79 25.945C1228.29 26.1245 1228.79 26.2942 1229.28 26.4777Z" fill="#FE7A04"/>
<path fill-rule="evenodd" clip-rule="evenodd" d="M1304 40.1115C1301.92 38.8821 1302.96 36.1195 1302.64 34.1461C1302.44 29.8009 1302.22 25.4615 1301.99 21.1182C1302.32 18.1661 1299.6 8.15739 1305.16 9.93142C1309.29 9.87814 1312.55 13.8642 1316.4 15.1548C1319.96 17.3511 1336.75 23.7723 1328.2 28.5636C1323.22 30.6829 1307.82 42.0098 1304 40.1115ZM1306.3 19.3501C1306.56 24.6761 1306.89 30.0021 1307.07 35.3321C1313.2 32.2695 1318.82 28.453 1324.88 25.276C1318.89 21.3826 1312.25 18.7364 1306.1 15.141C1306.14 16.546 1306.23 17.951 1306.3 19.3501Z" fill="#FE7A04"/>
<path fill-rule="evenodd" clip-rule="evenodd" d="M1250.26 137.097C1250.04 131.297 1249.81 125.484 1249.76 119.678C1250.19 117.279 1248.43 112.706 1251.76 112.061C1254.25 111.87 1254.22 114.737 1254.1 116.523C1254.11 119.445 1254.13 122.366 1254.21 125.284C1254.3 129.205 1254.59 133.12 1254.67 137.039C1254.68 138.239 1253.69 139.254 1252.49 139.269C1251.26 139.291 1250.34 138.296 1250.26 137.097Z" fill="#FE7A04"/>
<path fill-rule="evenodd" clip-rule="evenodd" d="M1252.24 143.546C1248.14 142.429 1244.73 139.559 1240.82 137.922C1236.84 135.688 1225.4 133.111 1230.17 126.834C1234.78 122.674 1239.97 119.207 1244.72 115.224C1247.09 113.936 1249.89 109.107 1252.69 111.716C1254.66 114.703 1249.97 116.365 1248.32 118.147C1243.63 122.094 1238.58 125.575 1233.93 129.565C1239.69 132.953 1245.99 135.242 1251.72 138.721C1256.18 135.001 1257.52 144.524 1252.24 143.546Z" fill="#FE7A04"/>
<path fill-rule="evenodd" clip-rule="evenodd" d="M1307.79 141.314C1306.81 140.157 1306.96 138.49 1306.97 137.079C1307.02 132.23 1307.03 127.38 1306.98 122.532C1306.95 119.66 1306.97 116.777 1306.81 113.908C1306.29 112.748 1307.12 111.291 1308.33 110.994C1309.6 106.974 1326.06 115.881 1329.21 116.939C1332.79 118.747 1340.75 120.688 1338.63 126.074C1337.28 128.079 1334.8 128.864 1332.88 130.224C1329.13 132.54 1325.48 135.029 1321.7 137.316C1318.11 139.098 1311.55 144.353 1307.79 141.314ZM1311.34 118.078C1311.38 120.436 1311.39 122.798 1311.4 125.156C1311.42 129.282 1311.45 133.411 1311.4 137.537C1319.49 134.334 1326.27 128.621 1333.79 124.347C1326.54 120.546 1319.02 117.261 1311.24 114.808C1311.3 115.897 1311.32 116.988 1311.34 118.078Z" fill="#FE7A04"/>
<path fill-rule="evenodd" clip-rule="evenodd" d="M318.671 118.648C310.035 118.539 301.428 117.687 292.816 117.075C288.195 116.627 283.32 116.544 279.028 114.616C275.376 112.104 276.483 106.638 275.403 102.81C273.576 94.2379 274.089 85.3737 272.607 76.7877C258.812 77.8789 244.835 77.7842 231.049 77.1192C229.306 76.4522 229.218 73.8376 230.964 73.1075C235.297 72.474 239.822 73.2554 244.217 73.1232C252.061 73.1193 259.921 73.287 267.751 72.7266C278.022 70.7197 277.347 76.2214 277.949 84.3712C278.352 93.2275 279.628 102.054 281.221 110.755C286.592 112.641 292.451 112.466 298.059 113.06C307.433 113.742 316.841 114.719 326.24 113.967C335.91 113.294 345.601 112.762 355.296 113.058C356.497 113.089 357.516 113.999 357.533 115.236C357.549 116.41 356.555 117.5 355.353 117.474C351.74 117.399 348.13 117.395 344.517 117.466C335.89 117.549 327.296 118.589 318.671 118.648Z" fill="#FFDF00"/>
<path fill-rule="evenodd" clip-rule="evenodd" d="M249.376 149.178C249.322 145.02 249.897 140.767 250.118 136.675C250.098 131.605 252.616 128.304 257.774 127.716C265.717 126.182 273.77 125.74 281.843 126.009C293.377 125.963 304.931 125.318 316.421 126.628C327.3 127.398 338.231 127.725 349.135 127.526C351.868 127.972 357.514 125.464 358.386 129C359.034 133.221 348.841 131.427 346.118 132.002C333.307 132 320.512 131.439 307.753 130.32C298.673 129.93 289.59 130.433 280.505 130.389C273.117 130.064 265.754 130.656 258.494 132.071C254.36 132.377 254.674 135.35 254.384 138.64C254.023 142.141 253.875 145.659 253.841 149.178H249.376Z" fill="#FFDF00"/>
<path fill-rule="evenodd" clip-rule="evenodd" d="M532.5 75.4044C531.703 75.3472 531.024 74.4513 530.719 73.8948C526.79 68.6457 523.853 62.7632 520.145 57.3682C511.1 46.7161 532.479 49.5952 537.965 48.356C541.572 48.1133 545.189 47.6417 548.808 47.7719C556.759 50.0136 547.636 59.6948 545.27 63.4579C542.935 66.6488 540.406 69.6877 537.813 72.6713C536.465 74.1494 534.776 77.1153 532.5 75.4044ZM529.858 64.5847C531.028 66.6389 532.394 68.5708 533.744 70.5125C538.827 64.7504 543.877 58.9725 547.318 52.1192C539.235 52.6598 531.074 53.017 523.169 53.9287C525.596 57.3564 527.717 60.9735 529.858 64.5847Z" fill="#261447"/>
<path fill-rule="evenodd" clip-rule="evenodd" d="M525.162 129.14C513.067 128.876 520.341 122.07 523.705 116.264C526.32 112.13 528.893 107.97 531.342 103.73C532.094 102.025 533.86 99.7692 535.782 101.458C538.809 106.636 542.499 111.512 546.712 115.797C548.879 118.287 556.997 125.401 549.789 126.482C541.586 127.323 533.446 129.563 525.162 129.14ZM529.501 124.767C535.277 124.304 540.976 123.256 546.708 122.464C542.324 117.551 537.645 113.091 534.174 107.493C530.766 113.358 527.182 118.997 523.573 124.584C525.541 124.831 527.522 124.923 529.501 124.767Z" fill="#261447"/>
<path fill-rule="evenodd" clip-rule="evenodd" d="M620.115 79.3196C623.568 84.5134 618.412 90.0604 615.74 94.3938C613.689 97.3973 611.525 100.328 609.427 103.298C607.702 105.135 606.358 109.754 603.185 108.401C599.272 105.881 606.899 99.9192 608.168 97.1131C622.565 77.6364 616.071 85.2317 602.631 62.2918C602.029 61.2143 600.886 60.1566 601.255 58.8207C601.688 57.094 604.03 56.6125 605.107 58.0412C609.82 65.3366 615.096 72.2393 620.115 79.3196Z" fill="#FFDF00"/>
<path fill-rule="evenodd" clip-rule="evenodd" d="M712.193 97.1723C713.977 99.2936 710.841 102.216 708.836 100.274C683.929 70.9132 694.163 79.3649 707.416 50.5227C708.282 49.5676 709.932 49.6584 710.705 50.6905C711.905 52.3145 710.699 54.3076 710.011 55.8961C706.729 63.0337 701.699 69.3167 698.186 76.251C700.063 83.3076 705.547 88.6948 709.748 94.4076C710.547 95.3469 711.402 96.229 712.193 97.1723Z" fill="#FFDF00"/>
<path fill-rule="evenodd" clip-rule="evenodd" d="M990.992 91.6391C983.556 90.686 973.634 92.4462 967.034 89.1468C965.289 86.5894 965.129 83.3808 965.021 80.18C965.078 79.9432 965.1 79.6965 965.096 79.442C965.064 77.5002 965.037 75.5565 964.914 73.6187C964.855 72.6715 964.794 71.7243 964.717 70.7771C964.715 70.7475 964.711 70.7179 964.709 70.6883C964.885 70.6429 965.06 70.5995 965.234 70.5541C965.139 70.5778 965.044 70.6034 964.948 70.6251C966.013 70.3528 967.083 70.0943 968.152 69.8437C968.182 69.8713 968.212 69.9009 968.241 69.9286C1003.43 70.1219 1038.65 70.785 1073.78 67.973C1079.35 67.3928 1081.07 69.1392 1080.75 74.7178C1080.74 79.3433 1082.42 88.8133 1077.41 91.128C1062.05 90.8024 1046.66 91.0668 1031.27 91.3332C1020.94 91.5108 1010.6 91.6904 1000.27 91.6904C997.178 91.6924 994.084 91.6766 990.992 91.6391Z" fill="#FFDF00"/>
<path fill-rule="evenodd" clip-rule="evenodd" d="M967.526 75.4381C964.183 75.1322 964.045 69.4845 967.824 70.2383C970.423 69.7489 972.205 72.9339 969.699 74.3685C969.26 75.1283 968.416 75.4992 967.526 75.4381Z" fill="#FFDF00"/>
</svg>
