<svg width="1440" height="160" viewBox="0 0 1440 160" fill="none" xmlns="http://www.w3.org/2000/svg">
<g opacity="0.05">
<path fill-rule="evenodd" clip-rule="evenodd" d="M101.334 15.5268C102.444 16.1488 103.118 17.5968 102.158 18.8988C88.7298 36.8908 71.6839 51.7767 57.1159 68.8007C50.4579 77.0487 44.8899 86.0967 38.0139 94.1787C36.5399 95.7927 35.3479 99.3367 32.7019 97.1387C32.1739 96.6187 31.9939 96.0347 32.0319 95.4427C31.5139 95.3467 31.0259 95.0747 30.6779 94.6427C24.9459 87.8247 20.0599 80.3687 14.5139 73.4087C8.28995 66.0827 1.68596 59.0807 -4.01003 51.3128C-12.746 40.2788 -20.716 28.4968 -30 17.9148V9.08282C-21.798 6.62283 -3.29404 8.56681 3.55996 8.08881C23.5939 8.82081 43.5539 10.9668 63.6319 11.0368C75.6299 11.5368 87.6498 12.0828 99.6178 12.9828C100.742 13.2068 101.468 14.4408 101.334 15.5268Z" fill="#DB3932"/>
<path fill-rule="evenodd" clip-rule="evenodd" d="M4.40191 101.209C7.5519 104.569 7.5199 107.435 3.76391 110.285C-0.466085 114.051 -5.04008 117.407 -9.28208 121.161C-12.8881 124.219 -16.2541 127.309 -19.7761 130.421C-22.4841 132.381 -25.3641 137.281 -29.162 135.265C-29.486 134.995 -29.764 134.613 -29.998 134.137V68.9667C-29.8 68.8307 -29.568 68.7308 -29.306 68.6668C-28.374 68.4428 -27.3581 68.8327 -26.8841 69.6827C-24.7901 72.3287 -22.4201 74.7627 -20.0021 77.1127C-11.6561 84.9307 -2.90009 92.3607 4.40191 101.209Z" fill="#DB3932"/>
<path fill-rule="evenodd" clip-rule="evenodd" d="M97.9575 95.3287C98.0355 104.519 97.9155 113.727 97.1295 122.889C96.2155 126.469 97.8535 134.775 92.7475 134.973C87.7455 134.057 84.5576 129.067 80.5036 126.309C72.2176 119.935 63.5396 113.545 55.9876 106.575C52.1896 104.115 57.7956 100.895 59.4036 98.8687C64.6256 93.9567 69.5576 88.7647 74.3996 83.4827C79.0456 78.5167 84.2035 74.0887 88.9575 69.2307C90.6395 67.7807 92.2215 64.4228 94.8635 65.7388C97.8555 68.4448 96.5535 74.0588 97.2315 77.7788C97.5755 83.6247 97.9155 89.4687 97.9575 95.3287Z" fill="#DB3932"/>
<path fill-rule="evenodd" clip-rule="evenodd" d="M219.427 99.7287C221.039 105.429 221.235 114.503 219.723 120.243C214.769 129.383 206.559 136.279 200.083 144.319C193.781 153.113 188.241 152.403 178.296 152.575C177.114 152.541 176.082 151.741 175.906 150.535C175.9 150.515 175.898 150.491 175.896 150.467C174.414 151.535 172.26 150.119 172.56 148.337C173.008 146.395 174.666 144.959 175.852 143.429C183.361 134.151 191.983 125.879 199.629 116.721C202.649 113.229 205.861 109.899 208.951 106.469C211.479 104.521 216.199 94.9907 219.427 99.7287Z" fill="#FFDF00"/>
<path fill-rule="evenodd" clip-rule="evenodd" d="M212.894 136.879C221.236 123.999 223.556 139.003 223.21 146.655C222.918 153.767 213.14 152.603 208.142 152.267C207.398 152.123 206.804 151.545 206.516 150.855C200.506 149.361 211.498 139.605 212.894 136.879Z" fill="#FFDF00"/>
<path fill-rule="evenodd" clip-rule="evenodd" d="M211.942 57.6248C222.008 44.3028 220.638 69.3727 220.258 75.0207C219.294 79.3647 215.526 82.5007 212.946 85.9627C206.806 92.8687 201.23 99.4867 195.82 106.817C187.062 118.059 177.998 129.059 169.254 140.317C167.35 142.587 165.874 145.275 163.64 147.241C159.096 150.009 153.416 150.045 148.146 150.001C146.738 149.633 145.32 149.297 143.894 148.999C143.342 148.347 143.136 147.455 143.59 146.539C141.288 147.495 139.626 144.559 141.104 142.757C146.504 134.137 153.132 126.429 159.732 118.729C171.464 104.383 183.186 89.9847 195.224 76.0107C200.652 69.7547 206.562 63.9227 211.942 57.6248Z" fill="#FFDF00"/>
<path fill-rule="evenodd" clip-rule="evenodd" d="M217.542 20.3048C218.44 32.9688 217.416 33.0128 209.476 42.2167C201.156 52.0327 193.146 62.0447 185.53 72.4087C171.3 90.9327 156.934 109.359 142.4 127.645C134.176 138.171 130.536 144.009 122.506 146.733C116.806 146.587 111.084 146.923 105.566 148.287C104.948 147.847 104.538 147.099 104.516 146.347C104.342 146.517 104.152 146.673 103.94 146.805C102.836 147.403 101.372 146.847 100.88 145.699C99.7364 142.753 108.552 133.391 110.34 130.245C119.738 116.669 130.176 103.875 139.958 90.5787C154.518 71.9227 169.2 53.1727 184.802 35.4428C191.92 27.5448 199.8 19.8388 207.586 12.8288C208.974 11.5168 210.958 9.27479 212.872 10.9408C214.62 9.74479 217.894 11.0308 217.542 20.3048Z" fill="#FFDF00"/>
<path fill-rule="evenodd" clip-rule="evenodd" d="M595.767 148.319C595.777 149.309 595.247 149.971 594.545 150.291C594.439 151.361 593.659 152.401 592.131 152.575C573.323 156.361 553.929 154.421 534.863 154.989C515.615 155.035 496.193 155.695 477.163 158.371C476.277 159.443 474.325 159.463 473.541 158.157C472.903 157.473 472.723 156.367 473.181 155.547C471.575 137.709 482.579 120.159 496.519 109.651C510.821 98.8807 530.321 94.8727 547.749 98.9947C536.645 66.6668 556.059 28.8068 585.189 12.8988C587.157 12.1128 590.301 9.93084 591.681 12.6068C591.773 12.8168 591.833 13.0348 591.855 13.2508C594.805 12.8768 594.095 16.8888 594.303 19.0108C595.633 36.5288 594.615 54.0808 594.503 71.6207C594.511 74.6987 594.553 77.7747 594.617 80.8527C594.333 82.4507 594.451 84.5607 594.753 86.7607C594.989 95.8647 595.319 104.965 595.375 114.071C595.377 125.491 595.729 136.901 595.767 148.319Z" fill="#261447"/>
<path fill-rule="evenodd" clip-rule="evenodd" d="M466.946 143.941C466.99 145.741 467.428 149.399 466.456 151.059C466.49 151.197 466.516 151.345 466.534 151.505C466.464 155.825 456.988 153.019 454.208 153.453C444.866 152.769 435.546 154.123 426.206 153.961C421.33 153.885 415.07 153.041 414.498 147.113C414.484 147.051 414.474 146.987 414.47 146.929C414.352 146.705 414.272 146.443 414.24 146.143C413.026 104.211 414.094 62.2127 413.826 20.2628C413.898 18.9528 413.858 17.7688 413.802 16.6148C413.544 16.4248 413.316 16.1488 413.122 15.7608C412.668 14.2628 413.242 13.3828 414.242 12.8528C414.766 12.3248 415.538 12.1168 416.258 12.2348C417.44 12.0308 418.7 11.9908 419.586 11.9048C428.576 11.2728 437.614 11.4548 446.612 11.7848C449.664 11.9248 452.734 12.1008 455.758 12.5328C456.284 12.6088 456.752 12.8548 457.096 13.2148C457.534 12.5408 458.27 12.1468 459.338 12.3988C462.796 12.5448 462.57 36.7148 463.184 40.7288C464.434 69.1767 465.028 97.6447 466.346 126.089C466.654 132.031 466.802 137.987 466.946 143.941Z" fill="#DB3932"/>
<path fill-rule="evenodd" clip-rule="evenodd" d="M396.353 143.513C397.255 144.303 397.717 145.821 396.835 147.677C394.961 151.869 389.269 150.623 385.561 150.533C376.329 150.173 367.093 150.845 357.857 150.775C356.313 150.673 354.401 151.051 353.235 149.811C354.797 148.581 355.611 146.699 355.141 143.845C354.539 140.981 355.183 131.761 351.733 130.605C351.425 121.123 350.951 111.645 350.519 102.165C350.839 101.199 350.779 99.9547 350.715 98.9807C350.661 94.7367 350.561 90.4887 350.471 86.2447C350.419 77.1067 349.879 67.9088 350.271 58.7988C350.183 58.2048 349.873 57.7588 349.455 57.4708C349.479 49.8148 349.551 42.1588 349.497 34.5048C349.947 34.4108 350.395 34.3168 350.841 34.2268C351.049 33.7668 351.177 33.3548 351.231 32.9908C351.903 32.3868 352.245 31.4248 351.823 30.5048C351.831 26.0588 352.333 21.6248 352.191 17.1768C352.517 14.4288 351.779 12.5588 350.305 11.3648C350.819 11.0688 351.399 10.9748 351.917 11.1388C352.055 11.0588 352.209 10.9948 352.375 10.9488C364.145 10.1528 376.099 10.8948 387.883 11.4028C388.467 11.4708 388.911 11.7068 389.221 12.0408C389.573 11.9568 389.951 11.9528 390.333 12.0408C394.353 12.8828 393.335 35.0148 394.181 39.6248C395.121 58.5668 396.167 77.5027 396.129 96.4727C396.343 108.927 396.451 121.377 396.663 133.829C396.351 136.957 397.463 140.577 396.353 143.513Z" fill="#DB3932"/>
<path fill-rule="evenodd" clip-rule="evenodd" d="M817.505 44.1247C818.343 49.3567 814.231 60.8687 808.693 52.7347C803.605 47.1127 793.535 45.0867 787.429 50.0307C783.001 54.1587 781.815 60.2647 781.797 66.0767C781.303 75.1687 781.599 84.2667 781.941 93.3547C782.511 107.337 782.553 108.697 767.955 110.163C761.483 110.231 761.423 106.485 761.765 101.171C761.759 96.7546 761.555 92.3446 761.469 87.9307C761.225 74.6267 761.015 61.3207 760.463 48.0247C760.629 44.8507 759.603 41.2947 761.069 38.4127C767.275 19.5507 815.375 23.9468 817.505 44.1247Z" fill="#DB3932"/>
<path fill-rule="evenodd" clip-rule="evenodd" d="M797.793 73.2307C787.841 73.8847 785.709 59.8508 794.991 57.9788C805.653 53.9608 809.779 72.9747 797.793 73.2307Z" fill="#DB3932"/>
<path fill-rule="evenodd" clip-rule="evenodd" d="M738.993 75.1868C730.195 75.1668 730.805 60.9847 738.763 60.0607C749.535 57.6407 752.715 74.9348 738.993 75.1868Z" fill="#DB3932"/>
<path fill-rule="evenodd" clip-rule="evenodd" d="M826.763 120.357C827.029 120.667 827.211 121.055 827.261 121.513C826.209 128.331 820.995 134.005 817.083 139.497C815.401 141.793 812.591 141.231 810.819 139.361C806.777 136.689 803.155 134.121 799.075 131.631C784.895 149.105 787.857 140.383 772.025 132.131C758.317 145.245 759.955 146.283 744.369 134.793C741.077 137.535 734.953 146.451 730.243 143.081C726.395 138.813 723.173 133.961 719.741 129.349C719.195 128.783 718.939 128.087 718.923 127.409C718.183 126.523 718.145 125.073 719.167 124.287C719.681 123.857 720.419 123.721 721.079 123.839C726.387 124.027 731.699 123.823 736.999 123.501C766.269 120.709 795.427 117.709 824.829 118.011C826.171 118.143 826.807 119.267 826.763 120.357Z" fill="#DB3932"/>
<path fill-rule="evenodd" clip-rule="evenodd" d="M1217.89 101.829C1218.87 107.137 1208.59 116.271 1205.14 120.395C1199.35 126.153 1194.02 132.341 1187.66 137.431C1183.49 139.569 1178.55 139.273 1174 139.635C1168.18 139.929 1162.35 140.357 1156.52 140.281C1154.57 140.171 1153.56 137.619 1154.93 136.213C1154.37 133.943 1156.87 132.483 1158.2 131.039C1163.33 126.271 1168.14 121.169 1173.02 116.163C1182.78 105.761 1191.73 94.5707 1202.44 85.0827C1205.66 82.5427 1208.75 79.0387 1212.7 77.8187C1218.47 77.8487 1216.99 97.2506 1217.89 101.829Z" fill="#DB3932"/>
<path fill-rule="evenodd" clip-rule="evenodd" d="M1151.58 137.001C1152.41 140.577 1147.53 140.395 1145.21 140.931C1142.84 141.257 1140.46 141.637 1138.07 141.931C1135.08 142.079 1132.09 142.221 1129.1 142.343C1129.09 142.343 1129.09 142.343 1129.08 142.343C1121.08 141.225 1112.11 130.835 1105.74 125.721C1101.63 121.427 1096.4 117.905 1093.05 112.995C1092.27 106.979 1092.75 100.753 1092.27 94.6747C1092.11 91.2367 1092.05 87.7947 1091.72 84.3727C1091.58 83.7107 1091.6 83.0567 1092 82.4527C1092.01 82.4467 1092.01 82.4427 1092.02 82.4367C1092.25 80.7407 1094.59 79.4307 1095.98 81.2967C1112.69 95.1427 1128.28 110.299 1143.38 125.867C1144.84 127.961 1151.09 132.735 1150.17 135.565C1150.82 135.801 1151.35 136.321 1151.58 137.001Z" fill="#DB3932"/>
<path fill-rule="evenodd" clip-rule="evenodd" d="M1140.67 11.4588C1146.41 11.7468 1151.58 14.8128 1145.12 19.6368C1131.26 32.6288 1118.98 47.1207 1106.4 61.3167C1103.27 63.9227 1095.49 75.4388 1091.68 73.7128C1089.59 72.6928 1090.6 69.6767 1090.43 67.9387C1090.49 63.3127 1090.12 58.6827 1089.84 54.0687C1090.14 50.8987 1087.69 40.9148 1090.65 39.6028C1090.63 36.7608 1093.97 35.1428 1095.49 33.0008C1101.97 26.1728 1108.43 18.6188 1115.51 12.5268C1118.99 8.98081 1123.84 10.1628 1128.24 10.6568C1132.37 11.1368 1136.54 10.9868 1140.67 11.4588Z" fill="#DB3932"/>
<path fill-rule="evenodd" clip-rule="evenodd" d="M1216.89 56.1647C1216.5 59.7047 1218.27 73.8527 1212.21 71.8727C1195.55 63.3887 1183.38 48.3828 1169.7 35.9848C1164.57 31.3488 1159.49 26.6628 1154.77 21.5948C1153.34 19.4148 1148.07 17.5528 1150.64 14.5588C1151.46 10.8288 1156.72 12.7908 1159.47 11.9108C1163.94 11.3608 1168.37 10.5668 1172.78 9.67683C1180.68 7.51284 1183.2 9.35479 1188.78 14.7228C1193.77 18.9528 1198.54 23.4328 1203.39 27.8328C1219.42 41.7428 1215.74 34.0448 1216.89 56.1647Z" fill="#DB3932"/>
<path fill-rule="evenodd" clip-rule="evenodd" d="M355.143 143.847C355.611 146.701 354.799 148.585 353.237 149.813C348.973 153.165 339.117 151.649 334.329 151.647C310.197 148.661 287.231 133.007 276.958 110.767C268.818 90.3387 272.4 66.0767 281.667 46.5947C289.097 34.3287 300.289 24.2427 313.261 18.1208C319.185 15.3208 343.237 5.62077 350.305 11.3628C351.779 12.5588 352.515 14.4288 352.191 17.1748C352.335 21.6228 351.831 26.0568 351.823 30.5028C352.245 31.4248 351.903 32.3848 351.231 32.9888C351.177 33.3528 351.049 33.7647 350.841 34.2247C350.395 34.3167 349.947 34.4088 349.497 34.5028C336.635 37.2007 322.713 41.0747 313.385 51.1927C296.659 68.7647 298.865 98.6827 315.877 115.287C322.065 120.927 329.607 124.863 337.781 126.675C341.805 128.235 346.651 127.943 350.247 130.117C350.351 130.247 350.435 130.383 350.499 130.523C350.959 130.447 351.369 130.479 351.733 130.603C355.185 131.763 354.541 140.983 355.143 143.847Z" fill="#FFDF00"/>
<path fill-rule="evenodd" clip-rule="evenodd" d="M350.716 98.9827C350.782 99.9567 350.842 101.201 350.52 102.167C350.322 102.763 349.978 103.253 349.398 103.509C349.138 104.415 348.388 105.161 347.162 105.113C313.862 104.329 311.81 62.3787 344.47 57.8967C345.064 57.0847 346.24 56.8807 347.148 57.2607C347.892 56.9407 348.806 57.0168 349.458 57.4708C349.874 57.7608 350.184 58.2048 350.274 58.7988C349.884 67.9088 350.422 77.1067 350.474 86.2447C350.562 90.4907 350.662 94.7367 350.716 98.9827Z" fill="#FFDF00"/>
<path fill-rule="evenodd" clip-rule="evenodd" d="M709.155 73.3546C716.363 71.5626 711.199 98.6846 710.069 102.507C701.439 129.861 682.641 146.527 653.043 144.159C624.001 142.839 605.069 123.383 596.783 96.6046C596.263 94.3546 595.255 90.4326 594.755 86.7626C594.453 84.5627 594.335 82.4526 594.619 80.8546C594.687 80.4486 594.783 80.0726 594.911 79.7406C594.825 78.9366 595.147 78.0927 595.953 77.6347C597.593 76.8987 599.525 77.2447 601.283 77.1067C608.295 77.0007 615.299 76.6266 622.301 76.2346C633.787 75.4386 645.303 75.3886 656.793 74.7506C673.591 73.4726 690.567 71.6266 707.397 72.3526C708.025 72.4966 708.533 72.9306 708.819 73.4826C708.923 73.4306 709.035 73.3906 709.155 73.3546Z" fill="#FFDF00"/>
<path fill-rule="evenodd" clip-rule="evenodd" d="M685.243 39.2188C688.983 38.6648 691.723 39.9748 690.735 44.1748C690.169 48.1467 688.999 52.0347 687.227 55.6327C681.437 68.5647 666.952 76.3907 652.962 74.0387C639.59 72.0707 628.022 59.0527 624.834 46.3167C623.29 41.0687 629.136 41.6447 632.564 41.5927C639.382 41.5147 646.204 41.4228 653.014 41.2108C663.824 40.9128 674.575 40.0108 685.243 39.2188Z" fill="#FFDF00"/>
<path fill-rule="evenodd" clip-rule="evenodd" d="M261.165 124.673C262.795 133.217 254.035 141.595 245.555 139.813C231.883 138.217 234.227 116.255 246.527 115.221C252.663 113.203 259.791 118.675 261.165 124.673Z" fill="#261447"/>
<path fill-rule="evenodd" clip-rule="evenodd" d="M249.102 69.9427C255.248 69.8707 260.766 75.6387 260.678 81.7326C259.834 88.1966 253.842 95.2726 246.824 94.3026C229.028 91.4446 232.834 70.4827 249.102 69.9427Z" fill="#261447"/>
<path fill-rule="evenodd" clip-rule="evenodd" d="M254.054 21.7248C272.35 25.5948 264.908 48.8628 248.806 48.4328C239.55 46.9848 233.556 36.9188 239.92 28.9748C243.484 24.7348 247.906 19.9248 254.054 21.7248Z" fill="#261447"/>
<path fill-rule="evenodd" clip-rule="evenodd" d="M500.113 78.4327C488.617 77.7907 489.747 74.2067 489.553 64.4247C489.261 58.6547 489.151 52.8807 489.285 47.1008C489.815 44.0248 488.113 37.6127 491.295 36.0548C493.163 32.6368 513.229 33.1247 517.917 32.4407C522.851 32.1647 530.641 29.9247 531.037 37.0327C531.375 47.4987 534.713 64.8967 530.045 74.0147C525.767 78.0527 506.507 78.5047 500.113 78.4327ZM507.231 73.3467C513.551 72.7407 520.035 72.5427 526.159 70.7727C528.737 59.8067 526.623 48.1027 525.895 36.9807C515.323 37.5947 504.815 37.9988 494.329 39.4608C493.905 50.4407 494.327 61.4367 494.789 72.4087C498.865 73.7747 503.325 73.5827 507.565 73.3207L507.231 73.3467Z" fill="#DB3932"/>
<path fill-rule="evenodd" clip-rule="evenodd" d="M118.272 97.7166C116.468 95.8647 118.648 94.1187 120.136 93.0287C121.772 91.4947 123.314 89.8606 124.828 88.2066C132.56 79.4967 140.07 70.5907 147.648 61.7447C154.858 53.2587 162.026 44.7187 169.536 36.4987C171.372 34.4847 174.702 37.2047 173.004 39.3947C170.112 42.8887 166.918 46.1167 164.024 49.6127C154.964 60.0347 146.08 70.6067 137.004 81.0167C134.206 83.6127 121.384 101.429 118.272 97.7166Z" fill="#261447"/>
<path fill-rule="evenodd" clip-rule="evenodd" d="M121.66 72.4147C120.616 71.6807 120.58 70.3867 120.592 69.2267C120.538 63.6167 119.966 58.0347 119.65 52.4367C119.486 49.5227 119.342 46.6067 119.224 43.6927C118.946 42.1667 119.51 40.1967 121.364 40.2307C123.684 38.2267 131.156 40.6427 134.824 39.9047C144.186 39.7687 156.732 39.6827 144.364 50.5507C139.79 55.5707 135.468 60.8107 130.968 65.8947C128.488 68.1006 125.58 74.3687 121.66 72.4147ZM123.636 44.7187C123.918 51.8427 124.598 58.9447 124.944 66.0627C131.136 59.0127 136.988 51.6507 143.486 44.8787C136.868 44.3607 130.226 45.1367 123.616 44.3227C123.622 44.4547 123.63 44.5867 123.636 44.7187Z" fill="#261447"/>
<path fill-rule="evenodd" clip-rule="evenodd" d="M918.655 137.113C918.665 137.443 918.601 137.751 918.477 138.025C918.321 140.623 915.325 140.221 913.425 140.097C886.605 139.311 859.773 139.845 832.949 140.117C831.985 140.193 831.271 139.925 830.803 139.485C829.929 139.367 829.137 138.781 828.991 137.673C826.273 107.509 826.877 77.0607 825.233 46.8207C825.137 46.6147 825.051 46.4047 824.975 46.1847C824.917 42.9847 828.503 43.1487 829.685 45.6507C850.005 65.9507 868.479 87.6067 889.141 107.503C897.273 115.393 905.467 123.221 913.505 131.207C915.143 133.165 918.085 134.525 918.655 137.113Z" fill="#261447"/>
<path fill-rule="evenodd" clip-rule="evenodd" d="M957.967 136.889C949.981 134.989 944.363 127.597 938.099 122.917C929.313 115.367 919.851 108.609 910.101 102.445C907.925 103.137 906.365 100.315 907.903 98.7146C908.081 97.9886 908.649 97.3586 909.339 97.1106C911.471 94.9846 913.541 92.8087 915.629 90.6427C927.467 77.5627 940.003 65.1527 952.171 52.3848C960.097 44.6848 959.011 61.3187 959.489 65.6327C960.093 75.2667 960.497 84.9127 960.241 94.5666C960.203 101.587 960.039 108.617 960.315 115.633C960.645 121.493 961.017 127.373 960.789 133.243C960.883 134.993 959.977 136.975 957.967 136.889ZM956.155 131.133C955.137 106.357 956.421 81.4127 954.307 56.6987C940.753 70.7207 927.189 84.7187 913.809 98.9067C921.337 103.817 928.731 108.653 935.551 114.497C942.629 119.785 948.661 126.423 956.155 131.133Z" fill="#261447"/>
<path fill-rule="evenodd" clip-rule="evenodd" d="M895.385 91.3307C892.933 87.8387 898.877 85.2187 900.483 82.5647C906.563 75.5167 912.417 68.2667 918.247 61.0067C927.341 49.5747 936.411 38.1328 944.669 26.0708C948.811 20.9548 952.099 14.5008 957.287 10.4988C959.437 9.90678 961.029 12.8028 959.305 14.2648C956.355 17.9588 953.613 21.8128 950.793 25.6068C945.161 33.4768 939.635 41.4307 933.683 49.0667C926.121 58.6507 918.581 68.2567 910.765 77.6367C907.909 80.2007 898.981 95.0867 895.385 91.3307Z" fill="#261447"/>
<path fill-rule="evenodd" clip-rule="evenodd" d="M895.109 90.6287C871.507 65.2547 847.129 40.5088 822.809 15.7988C820.751 13.3208 824.587 10.6168 826.513 13.0868C845.931 32.9367 865.835 52.3527 884.649 72.7927C889.129 77.6887 893.925 82.3187 898.183 87.3987C899.571 89.3187 897.115 91.9887 895.109 90.6287Z" fill="#261447"/>
<path fill-rule="evenodd" clip-rule="evenodd" d="M902.497 15.9928C886.509 15.5288 870.181 14.3208 854.257 14.9868C847.551 15.2968 840.671 15.4988 834.001 15.6608C830.995 15.2148 825.915 17.3468 823.897 14.7768C822.687 12.0808 825.793 11.1608 827.915 11.3488C832.215 11.1128 836.755 11.0308 840.867 10.9028C860.405 9.77279 879.929 10.4188 899.461 11.2788C917.211 12.2068 934.919 11.6108 952.633 10.3648C954.845 10.3968 958.551 9.15685 959.055 12.2548C959.183 13.5528 958.229 14.6148 956.979 14.7908C938.835 15.8988 920.679 17.0168 902.497 15.9928Z" fill="#261447"/>
<path fill-rule="evenodd" clip-rule="evenodd" d="M654.805 42.6588C648.029 42.9908 641.863 38.2208 638.827 32.4108C633.045 21.8948 643.169 10.9308 653.807 10.2248C662.847 9.5128 674.339 15.2428 674.763 25.2528C675.485 35.6628 664.861 44.4848 654.805 42.6588ZM656.957 38.3867C664.601 38.5787 671.747 31.5668 669.933 23.7508C667.823 17.5268 660.329 14.5328 654.149 14.9128C642.997 16.1888 637.023 27.1148 646.599 35.1088C650.455 38.4348 652.455 37.9287 656.957 38.3867Z" fill="#261447"/>
<path fill-rule="evenodd" clip-rule="evenodd" d="M877.487 156.955C876.603 156.701 875.709 156.265 875.293 155.379C873.355 155.125 872.695 152.491 874.213 151.285C876.509 149.081 882.053 150.407 880.057 154.197C880.637 155.695 879.041 157.459 877.487 156.955Z" fill="#FFDF00"/>
<path fill-rule="evenodd" clip-rule="evenodd" d="M1149.55 112.857C1142.85 111.237 1138.83 104.319 1133.92 99.9127C1129.26 94.7487 1124.33 89.8627 1118.8 85.6287C1116.64 83.0727 1107.84 79.7227 1111.61 75.9107C1120.44 66.4568 1129.21 56.8948 1139.45 48.9268C1146.66 44.1348 1150.1 35.3307 1158.77 43.2907C1167.98 50.1367 1173.99 59.7167 1181.73 67.8007C1183.18 69.3967 1184.59 70.9887 1186.08 72.3147C1188.63 73.9827 1189.99 76.0907 1187.94 78.9007C1181.47 87.5827 1172.69 94.3727 1164.72 101.553C1160.56 104.327 1154 112.731 1149.55 112.857ZM1149.8 107.843C1161.61 97.8267 1173.79 88.2927 1183.82 76.4987C1172.33 66.7287 1165.42 52.2707 1152.14 44.7227C1139.25 54.5147 1127.45 65.5427 1116.45 77.4127C1122.69 82.1627 1128.89 87.0407 1134.21 92.8127C1139.3 97.8587 1143.73 103.975 1149.8 107.843Z" fill="#261447"/>
<path fill-rule="evenodd" clip-rule="evenodd" d="M1147.11 88.0727C1142.29 86.5927 1137.47 81.6427 1138.06 76.2827C1138.61 70.1607 1145.15 64.2748 1151.4 65.9368C1167.4 70.1148 1163.28 90.3187 1147.11 88.0727ZM1156.15 77.7167C1156.13 77.8327 1156.1 77.9527 1156.07 78.0707C1156.22 77.7327 1156.32 77.3627 1156.27 76.9907C1156.24 77.2307 1156.2 77.4727 1156.15 77.7167Z" fill="#FFDF00"/>
<path fill-rule="evenodd" clip-rule="evenodd" d="M981.629 63.9847C971.731 63.6187 974.949 53.3047 973.821 46.4807C973.379 39.2387 972.819 32.0007 972.383 24.7588C972.545 22.4808 971.231 19.2248 973.349 17.6308C975.591 14.9068 983.783 15.3488 987.359 14.8308C989.925 14.4888 992.821 15.3348 993.073 18.3028C993.757 22.3928 994.019 26.5407 994.451 30.6627C994.997 40.2067 998.027 54.3667 993.355 62.8687C990.439 65.1427 985.205 63.8547 981.629 63.9847ZM987.235 59.5827C988.177 59.5567 989.119 59.5367 990.063 59.4827C992.821 46.3987 989.707 32.7068 988.597 19.5468C984.579 19.5868 980.617 20.2808 976.669 20.9488C977.593 33.4107 978.267 46.2067 979.267 58.5867C981.587 60.0147 984.619 59.5127 987.235 59.5827Z" fill="#FFDF00"/>
<path fill-rule="evenodd" clip-rule="evenodd" d="M1052.79 101.347C1057.34 87.0707 1054.25 71.8047 1053.72 57.1547C1049.36 56.2747 1044.88 57.0567 1040.49 57.0407C1040.93 71.3947 1041.62 85.7407 1041.35 100.103C1045.02 101.321 1048.94 101.659 1052.79 101.347ZM1058.68 63.4447C1059.42 76.2047 1061.17 89.3327 1057.46 101.813C1056.66 106.569 1051.65 106.159 1047.91 105.943C1043.75 105.427 1036.1 105.351 1036.78 99.4247C1036.82 92.6627 1036.96 85.8907 1036.73 79.1287C1036.5 72.6647 1036.27 66.2047 1036.1 59.7407C1036.09 57.3707 1035.28 52.1568 1039.16 53.1608C1041.88 51.2368 1054.46 51.3787 1056.99 53.7307C1059.19 56.3467 1058.25 60.2668 1058.68 63.4447Z" fill="#FFDF00"/>
<path fill-rule="evenodd" clip-rule="evenodd" d="M1049.69 131.673C1051.91 132.993 1050.32 136.267 1048.15 135.843C1047.81 136.327 1047.28 136.677 1046.66 136.717C1024.45 138.085 1002.6 139.775 980.369 138.873C977.629 138.261 970.181 140.047 968.965 137.051C968.801 137.129 968.619 137.189 968.419 137.225C967.253 137.397 965.971 136.545 965.861 135.327C965.101 118.499 965.519 101.593 964.613 84.7827C964.765 82.7887 966.877 82.3527 968.115 83.1427C968.807 83.0567 969.543 83.2807 970.095 83.9687C985.835 94.6207 1002.31 104.125 1018.81 113.537C1029.23 119.349 1039.5 125.451 1049.69 131.673Z" fill="#FFDF00"/>
<path fill-rule="evenodd" clip-rule="evenodd" d="M1085.46 36.7008C1085.08 39.9047 1087.18 57.1387 1082.6 56.0947C1082.22 56.0147 1081.91 55.8847 1081.65 55.7087C1081.13 55.8647 1080.53 55.8127 1079.92 55.4427C1068.23 48.0567 1055.97 41.6408 1043.83 35.0488C1030.84 27.8148 1018.54 19.3307 1004.92 13.2828C1004.68 13.0908 1004.48 12.8608 1004.34 12.6108C1003.11 12.4668 1002.06 11.1188 1002.48 9.85276C1002.98 6.54077 1020.22 7.43676 1023.87 6.75676C1041.47 6.21076 1059.09 5.78276 1076.7 5.94676C1078.06 6.13076 1079.58 5.92682 1081.01 5.98882C1081.01 5.98082 1081.01 5.97277 1081.02 5.96477C1083.35 3.49077 1085.61 6.28478 1084.9 8.96678C1084.76 18.2168 1085.35 27.4528 1085.46 36.7008Z" fill="#FFDF00"/>
<path fill-rule="evenodd" clip-rule="evenodd" d="M1027.28 47.8367C1027.59 59.7487 1029.88 71.8187 1027.84 83.6646C1026.97 89.2186 1019.9 88.0006 1015.73 88.3526C1010.79 88.4706 1003.64 87.3446 1004.57 80.8446C1004.52 74.1347 1004.17 67.4307 1003.86 60.7267C1003.59 53.4827 1003.21 46.2427 1003.02 38.9967C1002.92 36.5767 1002.31 31.1067 1006.32 32.7547C1007.62 31.5067 1009.74 32.0787 1011.39 31.8147C1014.67 31.6507 1017.38 31.2007 1020.57 31.2947C1029.49 30.8367 1026.43 42.1207 1027.28 47.8367Z" fill="#FFDF00"/>
<path fill-rule="evenodd" clip-rule="evenodd" d="M1085.02 96.3886C1085.06 105.981 1086.07 116.111 1083.12 125.349C1081.7 128.383 1072.79 129.081 1069.65 128.929C1063.79 128.689 1062.83 123.229 1062.99 118.419C1063.12 111.529 1063.43 104.635 1063.32 97.7387C1063.9 94.3747 1061.42 78.0807 1065.33 78.3667C1068.09 75.5407 1073.15 77.2627 1076.77 76.8987C1079.7 76.9087 1083.9 76.8667 1084.28 80.6587C1085.02 85.9607 1084.77 91.0847 1085.02 96.3886Z" fill="#FFDF00"/>
<path fill-rule="evenodd" clip-rule="evenodd" d="M1219.8 143.299C1217.92 142.335 1217.82 140.977 1218.55 139.517C1219.85 136.905 1223.83 133.983 1225.13 132.491C1230.48 127.439 1235.75 122.293 1241.3 117.459C1264.01 98.8147 1286.49 79.8907 1308.18 60.0527C1319.95 49.7587 1331.22 38.9088 1341.95 27.5368C1343.65 26.2728 1346.5 22.0108 1349.15 19.8448C1349.29 19.4108 1349.51 19.0008 1349.83 18.6288C1350.67 17.9228 1351.95 18.0248 1352.72 18.7548C1352.89 18.8388 1353.06 18.9508 1353.22 19.0968C1354.12 20.2548 1353.95 21.3448 1353.3 22.3808C1353.8 30.0688 1354.01 37.7908 1354.06 45.5267C1354.04 45.7947 1354.02 46.0568 1354.01 46.3068C1353.97 47.5568 1353.96 48.8008 1353.97 50.0488C1353.97 51.4208 1354 52.7927 1354.06 54.1627C1353.94 71.5427 1353.26 88.9767 1353.49 106.299C1353.5 115.293 1353.24 124.293 1353.47 133.285C1353.13 135.899 1355.22 140.499 1351.78 141.451C1350.69 141.613 1349.52 140.893 1349.25 139.819C1348.63 139.799 1348.01 139.727 1347.47 139.691C1331.59 139.435 1315.73 140.785 1299.85 141.029C1297.01 141.075 1294.16 141.083 1291.31 141.043C1283.68 140.967 1276.04 140.895 1268.39 140.891C1252.95 140.885 1237.51 141.159 1222.18 142.217C1222.11 142.305 1222.05 142.395 1221.98 142.477C1221.58 142.993 1221.08 143.385 1220.39 143.385C1220.21 143.387 1220.01 143.359 1219.8 143.299Z" fill="#FFDF00"/>
<path fill-rule="evenodd" clip-rule="evenodd" d="M1244.27 93.2407C1243.32 93.1287 1242.52 92.3687 1242.39 91.4187C1242.35 91.0827 1242.38 90.7747 1242.46 90.4887C1230.52 72.6027 1232.51 72.0147 1248.64 59.6927C1260.64 49.7887 1272.69 39.9047 1285.78 31.4668C1290.62 28.4708 1294.68 25.0068 1299.38 30.4268C1302.51 33.6168 1308.98 35.6488 1309.04 40.7108C1308.36 42.8308 1306.17 43.9508 1304.69 45.4708C1297.78 51.6348 1290.95 57.9187 1283.59 63.5467C1272.56 72.8407 1261.01 81.4427 1249.39 89.9687C1247.58 90.8667 1246.35 93.1907 1244.27 93.2407ZM1245.71 87.1547C1265.82 72.4447 1285.46 56.9407 1303.77 40.0427C1300.65 37.3007 1297.12 35.0447 1294.03 32.2647C1279.88 39.9327 1267.4 50.2868 1255.06 60.5127C1249.84 64.8307 1244.13 68.6207 1239.42 73.5387C1239.33 78.3967 1243.21 83.0787 1245.71 87.1547Z" fill="#FFDF00"/>
<path fill-rule="evenodd" clip-rule="evenodd" d="M1236.35 57.8147C1234.17 54.6607 1234.96 50.0467 1233.72 46.4067C1232.72 41.7147 1231.18 37.0968 1231.07 32.2628C1230.58 28.2768 1232.74 25.6228 1236.89 26.1588C1243.57 26.2468 1250.25 26.6767 1256.93 26.6887C1263.38 26.4987 1276.62 26.7888 1265.85 34.9567C1260.63 39.1987 1255.62 43.6947 1250.37 47.8987C1247.14 50.5427 1243.67 52.9487 1240.91 56.0987C1240.29 57.8227 1237.97 58.8867 1236.35 57.8147ZM1238.53 47.1787C1238.82 48.5507 1239.09 49.9307 1239.32 51.3167C1239.32 51.3247 1239.32 51.3347 1239.32 51.3427C1247.12 44.6327 1255.21 38.2427 1263.01 31.5268C1253.89 31.4208 1244.76 30.9728 1235.64 30.8028C1235.47 36.5107 1237.49 41.6707 1238.53 47.1787Z" fill="#FFDF00"/>
<path fill-rule="evenodd" clip-rule="evenodd" d="M1375.14 142.297C1369.82 141.581 1351.36 144.371 1361.35 134.553C1368.56 128.287 1375.81 122.025 1383.51 116.369C1378.58 114.007 1366.21 108.043 1364.89 102.857C1367.58 94.0047 1382.95 86.1467 1390.06 80.0547C1383.3 77.0907 1376.49 74.2427 1370.12 70.4767C1364.13 67.5348 1359.8 63.4688 1365.95 57.6928C1373.14 49.8248 1381.75 43.4148 1389.53 36.1688C1380.24 31.9988 1371.55 27.1528 1362.7 22.1868C1360.21 20.1368 1352.43 18.1548 1353.91 14.1268C1348.42 7.3668 1369.14 9.11681 1372.43 8.21481C1378.11 7.92081 1383.85 6.46084 1389.52 7.16684C1402.71 11.2008 1413.69 20.7648 1426.37 25.8568C1440.13 30.3108 1407.02 55.3647 1402.63 59.9907C1410.35 61.9827 1417.99 64.5007 1425.5 67.1207C1428.86 68.6287 1435.1 68.6027 1435.57 73.1827C1432.56 84.7427 1420.2 95.6087 1410.74 102.463C1429.1 109.945 1441.18 109.539 1419.73 126.959C1401.11 142.745 1399.25 142.855 1375.14 142.297ZM1367.79 137.209C1378.2 137.179 1389.22 138.833 1399.33 136.103C1409.17 129.723 1419.37 122.779 1426.5 113.595C1419.78 110.315 1412.47 108.385 1405.73 105.207C1402.19 102.795 1405.7 99.8427 1408.16 98.4407C1411.17 96.3127 1414.12 94.0967 1416.85 91.6207C1422.19 86.2927 1427.68 80.6407 1430.89 73.7307L1430.88 73.7288C1424.61 71.4948 1417.95 69.4967 1411.82 67.3207C1407.2 65.6287 1401.93 65.2968 1397.69 62.7548C1393.68 58.6468 1402.97 54.2487 1405.23 51.3347C1412.52 44.9468 1420.16 38.6948 1425.08 30.2348C1411.98 25.3148 1401.1 15.0808 1387.52 11.4648C1377.78 12.1868 1368.07 13.0148 1358.34 13.8168C1366.31 18.7148 1374.43 23.3028 1382.76 27.5668C1388.09 30.2468 1400.75 33.8128 1391.64 40.5408C1383.64 47.9767 1374.29 54.3348 1367.7 63.1148C1375.16 68.5628 1383.95 71.8427 1392.29 75.6807C1401.79 80.2307 1390.48 84.9408 1386.51 88.3587C1380.74 92.6407 1374.51 96.6627 1369.97 102.323C1396.69 122.323 1400.2 106.181 1365.35 137.121C1366.16 137.141 1366.98 137.173 1367.79 137.209Z" fill="#261447"/>
<path fill-rule="evenodd" clip-rule="evenodd" d="M900.341 66.6526C898.823 63.7647 904.659 60.3607 906.079 57.8947C912.535 50.7467 918.215 42.9627 924.357 35.5527C926.437 33.7907 928.233 28.6187 931.513 30.3547C932.503 31.0787 932.711 32.4947 931.997 33.4847C929.893 36.4007 927.539 39.0987 925.303 41.7747C919.399 49.1707 913.589 56.6567 907.153 63.6087C905.443 65.2907 902.769 69.7446 900.341 66.6526Z" fill="#FFDF00"/>
<path fill-rule="evenodd" clip-rule="evenodd" d="M900.095 66.2967C892.737 59.7547 885.479 53.0967 877.667 47.1047C870.657 41.9647 863.355 37.0307 857.355 30.6887C855.473 28.8947 857.937 25.7147 860.089 27.3167C871.307 38.2867 885.187 46.1847 896.489 57.0367C898.229 59.4087 905.251 62.6267 903.243 65.8087C902.551 66.7527 901.037 67.0767 900.095 66.2967Z" fill="#FFDF00"/>
<path fill-rule="evenodd" clip-rule="evenodd" d="M931.829 31.4407C918.063 30.3387 904.195 31.4327 890.401 31.3267C880.493 31.3087 870.597 30.1808 860.703 31.0748C856.989 30.8408 857.995 26.0607 861.525 26.6207C875.757 25.7547 890.009 27.5168 904.267 26.5828C913.627 26.6668 923.031 26.0688 932.363 26.9108C935.283 27.2428 934.765 31.8287 931.829 31.4407Z" fill="#FFDF00"/>
<path fill-rule="evenodd" clip-rule="evenodd" d="M371.373 148.043C371.309 106.641 370.653 65.2227 368.449 23.8728C368.389 19.8968 367.473 15.8208 367.889 11.8908C368.531 10.1228 371.207 9.89877 371.973 11.7068C374.911 49.0467 375.323 86.6547 375.749 124.129C375.799 132.081 375.721 140.035 375.841 147.985C375.885 150.833 371.407 150.969 371.373 148.043Z" fill="#FFDF00"/>
<path fill-rule="evenodd" clip-rule="evenodd" d="M440.89 149.815C437.634 106.109 438.888 62.2147 437.576 18.4248C437.748 16.4808 437.053 14.2648 437.993 12.4928C438.815 11.3748 440.638 11.2508 441.504 12.4048C443.318 44.9247 442.744 78.0627 443.528 110.791C443.578 120.951 443.95 131.111 444.632 141.249C444.232 144.379 447.374 150.433 443.46 151.731C442.29 151.901 441 151.045 440.89 149.815Z" fill="#FFDF00"/>
<path fill-rule="evenodd" clip-rule="evenodd" d="M1253.86 141.049C1253.67 141.037 1253.49 141.029 1253.3 141.027C1251.71 139.251 1254.64 136.875 1256.16 135.565C1260.64 131.495 1264.75 127.581 1268.91 123.261C1284.11 107.331 1300.26 92.0947 1316.84 77.6807C1325.27 70.5067 1334.09 63.8168 1342.48 56.5888C1345.76 53.8988 1349.08 51.2128 1352.14 48.2788C1352.74 47.7788 1353.39 47.6688 1353.98 47.8128C1353.97 48.5568 1353.97 49.3048 1353.97 50.0488C1353.97 50.9268 1353.99 51.8047 1354.01 52.6807C1335.42 68.8787 1315.43 83.5207 1297.9 100.871C1287.56 110.395 1277.69 120.379 1267.93 130.489C1264.91 133.481 1261.56 136.541 1258.55 139.291C1257.75 139.891 1257.07 140.839 1256.27 141.401C1255.48 141.231 1254.67 141.101 1253.86 141.049Z" fill="#DB3932"/>
<path fill-rule="evenodd" clip-rule="evenodd" d="M1300.83 115.975C1297.85 112.975 1303.67 110.387 1305.25 108.319C1311.59 102.225 1318.03 96.2527 1324.37 90.1667C1326.64 88.6627 1328.75 83.4027 1331.9 85.5987C1334.24 88.4787 1329.4 90.8407 1327.88 92.8847C1321.6 98.9227 1315.2 104.841 1308.92 110.881C1306.72 112.219 1303.44 117.745 1300.83 115.975Z" fill="#DB3932"/>
<path fill-rule="evenodd" clip-rule="evenodd" d="M1147.57 13.4948C1139.88 11.7208 1131.9 11.9948 1124.05 11.9608C1122.02 14.5628 1118.43 10.6588 1120.41 8.49078C1122.49 6.06878 1143.3 7.8448 1147.03 8.7608C1150.51 8.7628 1151.38 13.3808 1147.57 13.4948Z" fill="#DB3932"/>
<path fill-rule="evenodd" clip-rule="evenodd" d="M1149.68 13.7388C1145.36 8.13485 1155.29 8.5988 1158.51 8.1548C1165.57 7.4488 1172.07 7.3628 1179.01 7.5428C1182.17 7.0348 1184.26 10.7948 1180.8 12.0188C1171.36 11.9848 1162.17 12.0048 1152.85 13.2048C1152.21 14.2988 1150.65 14.5468 1149.68 13.7388Z" fill="#DB3932"/>
<path fill-rule="evenodd" clip-rule="evenodd" d="M1153.68 18.4648C1151.53 16.7508 1144.43 16.1388 1146.94 12.2888C1149.42 9.8628 1152.94 13.7168 1155.48 14.5688C1158 15.7348 1156.18 19.6608 1153.68 18.4648Z" fill="#DB3932"/>
<path fill-rule="evenodd" clip-rule="evenodd" d="M1116.41 14.7308C1114.42 12.9828 1116.68 11.0268 1117.98 9.70284C1118.9 8.67284 1120.2 7.42482 1121.67 8.15682C1123.2 8.76882 1123.33 11.0768 1121.95 11.9208C1120.31 13.1208 1118.77 16.4948 1116.41 14.7308Z" fill="#DB3932"/>
<path fill-rule="evenodd" clip-rule="evenodd" d="M1140.67 12.6428C1137.54 6.76482 1153.15 9.4568 1156.06 8.7528C1158.81 8.4708 1159.19 12.8268 1156.44 13.0048C1152.05 13.1888 1147.86 12.9828 1143.51 13.3288C1142.51 13.6788 1141.33 13.5828 1140.67 12.6428Z" fill="#DB3932"/>
<path fill-rule="evenodd" clip-rule="evenodd" d="M1135.53 12.5927C1135.53 12.5927 1135.53 12.5868 1135.53 12.5828C1133.14 12.2448 1133.26 8.48877 1135.71 8.33677C1143.77 8.21477 1151.82 7.44278 1159.88 7.87278C1161.04 7.91678 1161.97 8.94879 1161.92 10.1068C1161.68 13.6848 1154.77 11.5228 1152.49 12.0808C1146.84 12.1168 1141.18 12.7687 1135.53 12.5927Z" fill="#DB3932"/>
<path fill-rule="evenodd" clip-rule="evenodd" d="M1128.96 141.329C1126.11 141.685 1124.66 137.749 1127.54 136.767C1136.85 136.769 1146.57 136.793 1156.02 136.321C1161.37 135.901 1166.73 135.787 1172.09 135.715C1173.28 135.689 1174.28 136.687 1174.3 137.863C1174.31 139.061 1173.33 140.029 1172.15 140.063C1157.75 140.789 1143.37 141.277 1128.96 141.329Z" fill="#DB3932"/>
<path fill-rule="evenodd" clip-rule="evenodd" d="M1131.08 138.584C1131.1 134.693 1136.67 136.305 1139.22 135.741C1148.38 135.287 1157.55 135.331 1166.72 135.069C1167.89 135.041 1168.88 136.029 1168.89 137.189C1168.91 138.369 1167.94 139.335 1166.77 139.363C1162.28 139.473 1157.79 139.576 1153.3 139.67C1148.73 139.764 1144.14 139.843 1139.57 140.073C1136.99 139.675 1132 142.006 1131.08 138.584Z" fill="#DB3932"/>
<path fill-rule="evenodd" clip-rule="evenodd" d="M1149.59 138.873C1147.82 137.163 1142.73 135.177 1144.47 132.185C1147.04 129.429 1149.64 134.125 1151.88 135.253C1154.03 136.737 1151.83 140.187 1149.59 138.873Z" fill="#DB3932"/>
<path fill-rule="evenodd" clip-rule="evenodd" d="M1149.27 138.381C1145.08 135.141 1141.12 131.611 1137.05 128.229C1136.16 127.469 1136.2 125.999 1136.97 125.187C1139.38 122.497 1144.73 129.787 1147.14 131.079C1148.92 132.515 1150.57 134.097 1152.5 135.329C1155.06 137.563 1151.54 140.699 1149.27 138.381Z" fill="#DB3932"/>
<path fill-rule="evenodd" clip-rule="evenodd" d="M65.5758 136.769C65.2078 136.475 64.8418 136.189 64.4778 135.915C56.9558 130.517 49.7698 124.589 41.9198 119.665C38.8998 118.047 35.8678 116.405 32.7158 115.055C31.3198 115.185 29.8778 116.685 28.7818 117.143C18.5898 123.559 8.92184 130.779 -1.26015 137.223C7.45784 136.549 16.3518 136.523 24.9518 136.663C38.7138 136.513 52.0018 136.383 65.5758 136.769ZM71.1338 135.451C72.8938 136.229 73.4078 137.871 72.9798 139.023C73.1518 140.189 72.4398 141.419 70.6238 141.499C52.1238 140.459 33.5878 141.207 15.0718 141.007C6.59785 140.595 -1.73015 142.151 -10.1241 142.203C-12.0181 141.693 -11.9101 138.651 -10.2081 138.193C-9.44614 136.511 -6.31414 135.229 -4.92014 134.225C0.785851 130.637 6.48584 127.027 11.9958 123.141C16.8578 119.331 22.2178 115.717 27.5318 112.709C29.6958 111.173 32.3458 109.693 34.9598 111.125C48.3598 117.053 59.4618 126.827 71.1338 135.451Z" fill="#FFDF00"/>
<path fill-rule="evenodd" clip-rule="evenodd" d="M1194.26 1.77281C1196.41 1.65481 1197.11 4.1848 1196.06 5.4788C1186.39 5.4268 1176.73 5.35278 1167.07 5.29478C1143.97 5.15078 1120.88 5.0808 1097.81 5.5308C1092.43 5.6348 1087.06 5.77081 1081.68 5.93681C1081.6 5.91081 1081.52 5.88276 1081.44 5.84476C1081.46 5.85076 1081.47 5.85477 1081.49 5.86277C1081.46 5.85277 1081.43 5.83876 1081.4 5.82676C1081.38 5.81876 1081.36 5.80881 1081.33 5.79881C1081.33 5.79281 1081.32 5.79077 1081.31 5.78477C1081.28 5.76877 1081.25 5.75281 1081.22 5.73881C1080.91 5.20481 1080.82 4.54676 1080.93 3.93876C1079.78 2.40276 1080.59 0.198807 1083.53 0.642806C1098.57 0.838806 1113.87 1.49477 1128.94 1.82676C1129.26 1.82876 1129.57 1.83276 1129.89 1.83476C1133.73 1.85876 1137.57 1.8708 1141.41 1.8748C1154.29 1.4988 1167.14 0.348789 1180.03 0.174789C1182.49 0.520789 1186.91 -1.16919 1187.91 1.77281C1190.02 1.77081 1192.14 1.77081 1194.26 1.77281Z" fill="#FE7A04"/>
<path fill-rule="evenodd" clip-rule="evenodd" d="M1196.53 3.72476C1196.55 3.95876 1196.55 4.19875 1196.52 4.43075C1196.52 4.43075 1196.52 4.43279 1196.52 4.43679C1196.47 4.68879 1196.39 4.93679 1196.27 5.16079C1196.21 5.27279 1196.14 5.37874 1196.06 5.48074C1195.73 5.88874 1195.21 6.17675 1194.52 6.21475C1187.35 6.66875 1180.15 6.88875 1172.97 6.79275C1161.8 6.58875 1150.64 6.90475 1139.47 6.86275C1120.69 6.87675 1101.91 5.63875 1083.15 6.82674C1082.22 6.82474 1081.57 6.36875 1081.22 5.74075C1081.19 5.69075 1081.16 5.64274 1081.14 5.59274C1081.11 5.54074 1081.09 5.49075 1081.07 5.43875C1081.06 5.39875 1081.04 5.36075 1081.03 5.31875C1081.02 5.30475 1081.02 5.29074 1081.01 5.27474C1080.98 5.17074 1080.95 5.06474 1080.93 4.95474C1080.92 4.89274 1080.91 4.82873 1080.91 4.76474C1080.9 4.71474 1080.9 4.66875 1080.89 4.62075C1080.88 4.51075 1080.88 4.40274 1080.89 4.29074C1080.89 4.25674 1080.89 4.22479 1080.9 4.19479C1080.9 4.16079 1080.91 4.12878 1080.91 4.09878C1080.92 4.04678 1080.92 3.99478 1080.93 3.94278C1080.89 3.88878 1080.85 3.83079 1080.82 3.77279C1080.78 3.71479 1080.75 3.65878 1080.71 3.59878C1080.65 3.48878 1080.6 3.37674 1080.56 3.26474C1080.56 3.25674 1080.56 3.24875 1080.55 3.24075C1080.53 3.18075 1080.51 3.12074 1080.5 3.05874C1080.4 2.68274 1080.4 2.30278 1080.51 1.96078C1080.53 1.90078 1080.55 1.84277 1080.57 1.78677L1080.57 1.78476C1080.62 1.67076 1080.68 1.56077 1080.76 1.45877C1080.81 1.38077 1080.87 1.30479 1080.94 1.23679C1081.04 1.14279 1081.14 1.05877 1081.26 0.984772C1081.77 0.650772 1082.52 0.49476 1083.53 0.64676C1084.5 0.66076 1085.48 0.672766 1086.46 0.690766C1087 0.698766 1087.54 0.708781 1088.09 0.718781C1089.55 0.744781 1091.02 0.776761 1092.49 0.810761C1093.28 0.828761 1094.06 0.846744 1094.85 0.868744C1095.8 0.892744 1096.75 0.914766 1097.69 0.940766C1098.53 0.964766 1099.37 0.984773 1100.21 1.01077C1101.26 1.03877 1102.32 1.07075 1103.38 1.10275C1108.12 1.24275 1112.87 1.39474 1117.61 1.53274C1119.5 1.59074 1121.39 1.64479 1123.28 1.69479C1124.02 1.71479 1124.76 1.73478 1125.5 1.75278C1126.65 1.78478 1127.8 1.81079 1128.95 1.83279C1129.26 1.83479 1129.58 1.83879 1129.89 1.84079C1131.81 1.85479 1133.73 1.86079 1135.65 1.86679C1137.45 1.87479 1139.24 1.87677 1141.04 1.88077C1141.16 1.88077 1141.29 1.88077 1141.41 1.88077C1142.32 1.85477 1143.23 1.82679 1144.14 1.78879C1145.24 1.74879 1146.34 1.70274 1147.45 1.65274C1147.85 1.63674 1148.26 1.61678 1148.66 1.59878C1149.69 1.55278 1150.72 1.50079 1151.75 1.44479C1152.19 1.42079 1152.64 1.39879 1153.08 1.37479C1154.55 1.29679 1156.02 1.2168 1157.49 1.1348C1158.27 1.0908 1159.05 1.04679 1159.83 1.00479C1161.84 0.892792 1163.86 0.780742 1165.87 0.678742C1166.55 0.642742 1167.23 0.610752 1167.91 0.576752C1169.7 0.490753 1171.5 0.412801 1173.3 0.350801C1173.74 0.334801 1174.19 0.31878 1174.64 0.30478C1175.09 0.29078 1175.54 0.276741 1175.99 0.264741C1176.29 0.254741 1176.6 0.246801 1176.9 0.238801C1177.14 0.232801 1177.38 0.228749 1177.62 0.222749C1178.42 0.204749 1179.23 0.188743 1180.03 0.178743C1181.4 0.370742 1183.37 -0.0632584 1185.02 0.0147415C1185.05 0.0147415 1185.07 0.0167556 1185.1 0.0167556C1185.14 0.0187556 1185.17 0.0227512 1185.21 0.0247512C1185.35 0.0347512 1185.5 0.0507717 1185.64 0.0707717C1185.69 0.0787717 1185.73 0.0847585 1185.78 0.0947584C1185.88 0.112758 1185.99 0.13477 1186.08 0.15677C1186.15 0.17477 1186.23 0.196782 1186.3 0.218782C1186.36 0.236782 1186.42 0.258793 1186.48 0.280793C1186.51 0.290793 1186.53 0.30479 1186.56 0.31479C1186.6 0.33279 1186.64 0.348745 1186.68 0.368745C1187.06 0.546745 1187.38 0.806789 1187.62 1.17679C1187.65 1.21079 1187.67 1.24679 1187.69 1.28079C1187.73 1.35279 1187.78 1.43275 1187.81 1.51675C1187.83 1.55875 1187.85 1.60079 1187.86 1.64279C1187.88 1.68679 1187.9 1.73075 1187.91 1.77475C1190.03 1.77275 1192.15 1.77275 1194.26 1.77475C1194.54 1.75875 1194.79 1.7888 1195.01 1.8508C1195.12 1.8828 1195.23 1.92078 1195.33 1.96878C1195.5 2.04678 1195.65 2.14677 1195.78 2.26077C1195.91 2.37477 1196.03 2.50875 1196.13 2.65475C1196.16 2.70075 1196.19 2.7488 1196.22 2.7988C1196.23 2.8188 1196.24 2.84077 1196.25 2.86477C1196.28 2.91677 1196.31 2.96678 1196.33 3.02078C1196.43 3.24078 1196.5 3.47876 1196.53 3.72476Z" fill="#FFDF00"/>
</g>
</svg>
